<?xml version="1.0" standalone="no"?>
<!DOCTYPE svg PUBLIC "-//W3C//DTD SVG 20010904//EN"
 "http://www.w3.org/TR/2001/REC-SVG-20010904/DTD/svg10.dtd">
<svg version="1.0" xmlns="http://www.w3.org/2000/svg"
 width="1024.000000pt" height="1024.000000pt" viewBox="0 0 1024.000000 1024.000000"
 preserveAspectRatio="xMidYMid meet">

<g transform="translate(0.000000,1024.000000) scale(0.100000,-0.100000)"
fill="#000000" stroke="none">
<path d="M0 9120 l0 -1121 53 1 c64 2 98 -5 109 -22 6 -9 8 -7 6 7 -3 20 3 22
33 10 10 -4 28 4 47 19 16 15 42 26 57 26 15 0 24 4 20 10 -3 6 -16 10 -28 10
-19 1 -20 2 -5 11 9 5 15 16 12 24 -8 21 6 41 17 24 6 -10 9 -5 9 16 0 21 -3
26 -9 16 -7 -10 -9 -6 -8 13 2 22 4 24 13 11 14 -19 44 -19 44 0 0 8 -7 15
-15 15 -18 0 -20 37 -3 42 9 3 9 6 0 12 -7 4 -12 2 -12 -3 0 -6 -7 -11 -15
-11 -10 0 -15 9 -14 28 0 15 3 21 6 15 7 -18 31 -16 50 3 12 12 18 13 23 3 12
-19 39 -3 33 19 -4 18 -1 20 32 17 20 -2 34 -1 31 2 -3 3 -1 14 5 25 8 16 13
17 25 7 12 -10 17 -10 27 0 9 10 8 14 -5 22 -19 10 -25 39 -9 39 5 0 12 20 15
44 4 26 17 55 31 71 14 14 25 33 25 41 0 7 6 14 13 14 26 0 51 26 43 46 -5 14
-9 15 -15 5 -5 -7 -11 -9 -14 -5 -3 5 1 15 9 22 9 8 14 9 14 2 0 -8 6 -8 20 0
13 7 20 21 20 42 0 27 -3 30 -25 26 -13 -3 -22 -2 -20 3 3 4 -19 10 -47 14
-58 8 -76 18 -89 52 -4 12 -21 29 -37 37 -26 13 -36 13 -93 0 -58 -13 -68 -13
-109 1 -77 28 -89 37 -111 82 -11 23 -25 43 -30 43 -5 0 -9 7 -9 15 0 16 45
21 54 6 3 -5 38 -17 77 -26 54 -14 76 -15 95 -6 32 14 30 41 -4 74 -34 33
-106 49 -202 45 -61 -3 -74 0 -84 15 -9 15 -7 22 13 38 20 16 33 19 65 13 23
-3 46 -9 51 -12 17 -11 38 -12 78 -6 33 5 37 9 37 35 0 32 -15 43 -73 53 -57
10 -87 27 -87 47 0 21 50 62 104 84 l38 16 -23 25 c-12 13 -29 24 -37 24 -8 0
-12 6 -9 14 3 8 1 17 -6 20 -7 2 5 5 26 5 20 1 37 6 37 12 0 6 7 8 16 5 8 -3
25 1 37 8 14 9 46 14 85 13 35 -1 66 2 69 6 7 11 69 0 105 -19 15 -8 51 -15
80 -17 42 -3 62 1 97 21 l44 26 18 -23 c11 -13 19 -29 19 -36 0 -33 31 -40
189 -40 l156 0 71 -37 c68 -35 159 -56 213 -50 13 2 56 -4 95 -12 39 -9 114
-17 167 -19 75 -3 101 -7 114 -20 17 -18 13 -53 -5 -42 -5 3 -10 2 -10 -3 0
-6 -11 -13 -25 -16 -16 -4 -27 -16 -31 -34 -9 -38 -23 -52 -51 -52 -14 0 -40
-7 -57 -15 -66 -32 -16 -91 65 -79 21 3 39 2 42 -3 8 -13 146 -16 162 -3 7 6
17 10 21 9 21 -3 35 2 29 11 -3 6 -2 10 4 10 5 0 12 -6 14 -12 4 -10 6 -10 6
0 1 17 31 15 38 -4 4 -10 13 -14 29 -10 16 4 31 -2 53 -25 17 -17 31 -27 32
-22 0 4 4 -2 9 -14 9 -21 11 -21 37 -8 15 8 36 15 46 15 9 0 17 7 17 15 0 8 7
15 16 15 9 0 18 9 21 20 3 11 9 17 14 14 5 -3 9 4 9 16 0 17 -3 19 -19 11 -15
-9 -20 -7 -24 9 -3 13 -14 20 -30 20 -16 0 -31 10 -42 26 -16 25 -16 26 3 20
12 -4 26 0 35 9 9 8 20 15 25 15 6 0 13 7 16 15 3 9 11 15 18 14 29 -3 39 2
36 19 -2 9 -10 17 -18 17 -8 1 -14 6 -12 13 1 7 -5 12 -13 12 -7 0 -18 7 -23
17 -5 9 -20 17 -33 19 -35 4 -35 4 -22 12 10 6 -18 10 -114 15 -35 2 -37 4
-24 26 6 9 20 11 50 6 22 -4 41 -11 41 -15 0 -14 138 -1 163 14 12 8 36 13 54
10 18 -2 35 1 38 6 4 6 12 7 18 3 18 -11 51 -11 65 -1 8 7 17 7 26 -1 10 -8
16 -9 21 -1 3 5 17 10 31 10 14 0 22 4 19 10 -3 6 0 10 9 10 21 0 13 33 -10
36 -22 3 -44 31 -44 55 0 35 117 51 181 26 30 -12 57 -13 149 -4 14 1 29 8 33
15 4 6 20 12 35 12 15 0 33 4 41 9 22 14 -3 41 -31 33 -12 -3 -19 -1 -16 4 4
5 -10 9 -30 8 -41 0 -77 12 -105 35 -10 8 -28 16 -39 18 -26 4 -58 31 -58 48
0 16 -45 39 -59 31 -6 -4 -11 -2 -11 3 0 6 5 11 10 11 6 0 10 6 10 14 0 17 24
28 45 20 8 -4 15 -1 15 5 0 6 11 11 25 11 14 0 25 4 25 9 0 5 9 13 20 16 12 4
17 11 13 18 -4 8 -1 8 9 -1 13 -10 17 -10 21 3 5 10 18 14 46 12 22 -1 43 -6
47 -10 4 -4 18 -7 31 -7 12 0 23 -4 23 -8 0 -5 6 -9 13 -10 6 0 50 -3 97 -6
47 -3 86 -10 88 -16 2 -5 8 -8 13 -4 20 12 53 13 68 1 10 -8 13 -8 8 0 -5 8
-1 8 16 0 26 -12 29 -43 6 -58 -12 -7 -12 -9 0 -9 8 0 23 -7 33 -17 10 -9 18
-11 18 -5 0 6 17 2 40 -9 21 -10 46 -19 55 -19 8 0 15 -3 15 -7 0 -5 28 -9 63
-11 34 -2 63 -7 65 -12 2 -4 13 -6 25 -3 18 4 19 3 7 -6 -10 -7 -11 -13 -5
-19 16 -15 74 -22 81 -11 3 6 17 9 30 6 16 -3 24 0 24 10 0 8 5 11 10 8 16
-10 70 5 70 20 0 7 7 18 15 25 8 7 13 16 10 20 -3 5 -1 11 5 15 5 3 10 16 10
29 0 17 11 27 50 44 28 12 55 22 60 22 5 0 13 12 16 26 4 16 11 23 21 20 8 -3
12 -2 9 3 -3 5 1 14 8 20 10 8 16 9 21 1 3 -5 12 -10 18 -10 7 0 6 4 -3 10
-11 7 -7 10 17 10 17 0 35 5 38 10 4 6 3 10 -2 9 -20 -4 -27 2 -13 12 13 9 13
10 -2 6 -9 -3 -19 -3 -23 1 -7 7 -11 8 -65 11 -33 2 -34 2 -13 14 l22 12 -22
29 -23 29 -36 -31 c-19 -18 -38 -28 -42 -25 -4 4 -4 0 -1 -8 9 -23 -87 -42
-141 -27 -53 14 -119 96 -96 118 13 12 15 11 10 -8 -4 -12 -2 -20 3 -16 5 3 9
12 9 20 0 8 3 13 8 12 4 -1 21 5 37 12 17 7 49 12 73 12 23 0 42 4 42 10 0 6
6 5 15 -2 13 -10 15 -9 15 8 0 21 -24 52 -41 52 -5 0 -9 9 -9 20 0 11 -7 20
-15 20 -8 0 -15 9 -15 20 0 13 -5 17 -14 14 -10 -4 -16 3 -18 23 l-3 28 -272
3 c-268 2 -271 2 -266 -18 3 -11 0 -27 -7 -35 -7 -9 -10 -19 -6 -23 4 -4 12 1
18 11 9 17 11 16 35 -7 14 -14 32 -26 39 -26 8 0 14 -11 14 -25 0 -20 -5 -25
-25 -25 -14 0 -30 9 -37 20 -7 11 -17 20 -22 20 -13 0 -58 50 -75 83 l-14 27
-1579 0 -1578 0 0 -1120z m2884 957 c-4 -6 -4 -9 1 -5 5 5 13 -2 19 -15 9 -16
21 -22 47 -23 19 0 40 -3 46 -7 7 -4 31 -10 55 -13 24 -3 48 -7 54 -9 7 -2 21
5 33 16 16 15 29 19 51 14 17 -4 30 -12 30 -20 0 -26 69 -48 131 -41 58 7 59
7 59 -19 0 -16 -6 -25 -15 -25 -8 0 -15 -4 -15 -8 0 -18 -77 -31 -149 -26 -40
2 -78 0 -85 -5 -6 -5 -29 -11 -52 -13 -23 -3 -46 -8 -52 -12 -7 -4 -38 -9 -71
-11 -54 -4 -62 -2 -79 20 -14 17 -22 21 -25 13 -3 -7 -6 -3 -6 10 -1 12 -6 22
-12 22 -5 0 -7 -6 -3 -12 6 -10 5 -10 -8 -1 -8 7 -18 10 -21 6 -4 -3 -7 -1 -7
6 0 8 7 11 15 7 21 -8 19 10 -4 31 -44 41 -36 94 17 114 13 5 26 19 29 30 5
19 7 19 15 5 5 -9 6 -22 2 -29z m519 5 c-14 -2 -20 -8 -16 -18 3 -10 0 -13
-11 -9 -54 17 -53 16 -27 29 12 7 35 10 50 7 24 -5 24 -6 4 -9z m222 -42 c31
0 43 -20 22 -35 -20 -14 -23 -30 -4 -19 7 4 9 3 4 -2 -5 -5 -12 -9 -15 -9 -4
0 -13 -4 -19 -8 -7 -5 -13 -4 -13 1 0 6 -17 8 -40 5 -33 -5 -40 -3 -40 11 0
19 16 21 24 4 3 -7 4 -1 1 15 -3 16 -1 27 5 27 6 0 9 4 5 9 -3 5 5 11 17 13
13 2 25 0 26 -4 2 -5 14 -8 27 -8z m389 -111 c-8 -13 -24 -1 -24 18 0 13 3 13
15 3 8 -7 12 -16 9 -21z m-2775 -123 c15 -18 5 -79 -18 -119 -17 -30 -59 -35
-52 -7 2 8 5 37 6 63 2 33 9 53 22 62 23 18 28 18 42 1z m-513 -242 c41 -10
27 -23 -26 -22 -30 0 -54 5 -61 14 -9 12 -9 13 4 9 8 -4 18 -1 22 5 4 6 14 9
22 6 8 -4 26 -9 39 -12z m71 -20 c-3 -3 -12 -4 -19 -1 -8 3 -5 6 6 6 11 1 17
-2 13 -5z m1278 -224 c3 -5 1 -10 -4 -10 -6 0 -11 5 -11 10 0 6 2 10 4 10 3 0
8 -4 11 -10z m-311 -235 c-4 -8 -11 -12 -16 -9 -6 4 -5 10 3 15 19 12 19 11
13 -6z m436 -10 c0 -8 -4 -15 -9 -15 -5 0 -11 7 -15 15 -3 9 0 15 9 15 8 0 15
-7 15 -15z m-265 -25 c3 -5 1 -10 -4 -10 -6 0 -11 5 -11 10 0 6 2 10 4 10 3 0
8 -4 11 -10z m82 -6 c-3 -3 -12 -4 -19 -1 -8 3 -5 6 6 6 11 1 17 -2 13 -5z
m-1613 -405 c6 -5 3 -11 -7 -15 -9 -3 -17 -12 -17 -19 0 -18 -69 -11 -89 10
-15 15 -15 17 0 28 18 14 98 11 113 -4z m-24 -289 c0 -5 -5 -10 -11 -10 -5 0
-7 5 -4 10 3 6 8 10 11 10 2 0 4 -4 4 -10z"/>
<path d="M2847 10049 c7 -7 15 -10 18 -7 3 3 -2 9 -12 12 -14 6 -15 5 -6 -5z"/>
<path d="M378 8633 c7 -3 16 -2 19 1 4 3 -2 6 -13 5 -11 0 -14 -3 -6 -6z"/>
<path d="M3200 10225 c0 -8 2 -15 4 -15 2 0 6 7 10 15 3 8 1 15 -4 15 -6 0
-10 -7 -10 -15z"/>
<path d="M4181 10213 c4 -51 -1 -73 -16 -73 -21 0 -37 -37 -30 -68 3 -15 7
-40 9 -57 2 -16 7 -42 11 -58 l7 -27 35 21 c29 18 37 19 44 8 5 -8 9 -10 9 -5
0 5 7 3 15 -4 8 -7 21 -10 29 -7 8 3 20 -1 28 -10 10 -12 10 -17 1 -20 -6 -2
-10 -16 -7 -31 3 -18 1 -23 -4 -14 -7 10 -14 11 -28 4 -11 -6 -27 -13 -36 -16
-14 -4 -15 -9 -5 -30 7 -14 18 -26 25 -26 6 0 12 -5 12 -10 0 -6 6 -10 13 -8
6 1 22 -3 34 -10 12 -7 60 -15 105 -18 108 -6 126 -11 131 -32 3 -12 5 -13 6
-2 0 9 16 23 34 32 39 21 148 48 188 48 34 0 72 -17 65 -29 -17 -27 119 -36
251 -18 29 5 93 58 93 79 0 10 72 45 109 53 15 3 52 0 82 -8 65 -17 212 -15
234 3 8 7 15 19 15 26 0 8 12 19 28 24 15 6 36 15 47 20 11 5 52 19 91 31 56
17 82 20 127 15 31 -4 57 -11 57 -15 0 -4 33 -3 73 1 39 5 101 10 137 12 36 1
79 6 95 10 23 5 25 4 10 -3 -16 -8 -17 -10 -3 -10 9 -1 23 6 32 14 8 8 19 15
24 15 5 0 15 7 22 15 7 8 25 15 41 15 20 0 29 5 29 16 0 13 3 14 14 5 10 -8
16 -9 21 -1 3 5 4 10 1 10 -3 0 3 9 14 20 11 11 25 20 32 20 21 0 -55 58 -85
65 -15 4 -39 18 -52 31 l-24 24 -1096 0 -1096 0 2 -27z"/>
<path d="M6693 10225 c-10 -11 -8 -18 9 -38 20 -23 23 -23 34 -8 10 12 15 13
24 4 10 -9 19 -4 41 18 16 16 29 31 29 33 0 2 -28 4 -62 4 -43 1 -67 -3 -75
-13z"/>
<path d="M2780 9731 c0 -5 7 -12 16 -15 24 -9 28 -7 14 9 -14 17 -30 20 -30 6z"/>
<path d="M1740 9125 c-8 -9 -8 -15 -2 -15 12 0 26 19 19 26 -2 2 -10 -2 -17
-11z"/>
<path d="M1027 9083 c-13 -13 -6 -21 24 -27 37 -7 50 -1 42 19 -5 15 -54 21
-66 8z"/>
<path d="M1195 9080 c-4 -6 -10 -8 -15 -5 -4 3 -13 -2 -20 -10 -10 -13 -9 -15
11 -14 13 1 34 4 47 7 22 7 22 7 3 19 -13 8 -22 9 -26 3z"/>
<path d="M2590 8930 c-8 -5 -23 -7 -32 -4 -10 3 -26 -5 -40 -20 -13 -13 -32
-26 -43 -29 -17 -4 51 -8 124 -7 12 0 28 -3 34 -7 15 -9 127 -10 154 -1 12 4
25 3 28 -2 10 -15 25 -12 25 6 0 12 -8 14 -45 8 -41 -6 -45 -5 -38 12 4 11 8
13 11 6 5 -17 22 -15 22 3 0 16 -42 30 -64 22 -7 -3 -24 0 -37 7 -31 15 -80
18 -99 6z"/>
<path d="M2448 8893 c6 -2 18 -2 25 0 6 3 1 5 -13 5 -14 0 -19 -2 -12 -5z"/>
<path d="M430 8150 c0 -5 5 -10 10 -10 6 0 10 5 10 10 0 6 -4 10 -10 10 -5 0
-10 -4 -10 -10z"/>
<path d="M345 8109 c-4 -6 -5 -12 -2 -15 7 -7 37 7 37 17 0 13 -27 11 -35 -2z"/>
<path d="M3220 7937 c-20 -17 -39 -33 -43 -34 -26 -6 -31 -11 -22 -22 8 -8 25
3 60 39 56 56 58 67 5 17z"/>
<path d="M3137 7865 c3 -9 1 -15 -4 -13 -6 2 -19 -6 -29 -17 -11 -12 -17 -16
-14 -10 3 6 -2 3 -11 -7 -9 -9 -20 -14 -24 -10 -4 4 -5 0 -4 -8 4 -15 -35 -62
-44 -54 -3 3 -18 -12 -33 -33 -16 -21 -35 -44 -41 -51 -7 -7 -13 -18 -13 -23
0 -6 -18 -28 -41 -50 -30 -29 -39 -44 -33 -57 12 -29 13 -45 3 -64 -14 -26 4
-22 20 5 36 58 179 252 232 316 33 39 57 76 54 81 -10 16 -25 12 -18 -5z"/>
<path d="M3688 7843 c39 -2 105 -2 145 0 39 1 7 3 -73 3 -80 0 -112 -2 -72 -3z"/>
<path d="M9685 7560 c-3 -11 -12 -20 -19 -20 -13 0 -91 -34 -116 -51 -8 -5
-22 -12 -30 -15 -19 -7 -50 -68 -50 -99 0 -15 -11 -31 -30 -45 -35 -25 -38
-36 -9 -45 26 -9 83 29 109 72 10 18 30 35 44 39 15 3 26 10 26 15 0 5 8 9 18
10 13 0 12 2 -6 9 -19 8 -21 12 -10 29 6 11 16 17 20 15 4 -3 8 1 8 9 0 18 45
49 103 71 26 10 47 20 47 22 0 2 -22 4 -49 4 -41 0 -51 -4 -56 -20z"/>
<path d="M3893 7514 c-60 -22 -124 -83 -162 -153 -18 -34 -36 -61 -40 -61 -30
0 -76 -169 -74 -272 l2 -46 -42 -4 c-23 -2 -167 -4 -319 -3 -153 1 -278 -2
-278 -6 0 -5 141 -9 314 -9 l314 0 5 -22 c3 -13 2 -43 -3 -68 -6 -31 -5 -47 3
-52 9 -6 9 -10 -1 -16 -8 -6 -11 -26 -8 -64 2 -31 0 -61 -4 -68 -5 -8 -4 -24
0 -36 5 -13 6 -25 2 -28 -9 -5 -7 -145 2 -182 5 -17 3 -23 -4 -19 -5 3 -10 1
-10 -4 0 -6 5 -11 11 -11 5 0 7 -5 4 -10 -11 -18 -13 -80 -3 -73 6 3 7 -3 2
-18 -5 -13 -8 -43 -8 -66 -1 -23 -4 -39 -8 -37 -12 8 -10 -10 3 -23 8 -8 8
-13 0 -17 -19 -12 -12 -24 19 -31 17 -4 30 -10 30 -15 0 -4 -13 -10 -30 -13
-18 -4 -30 -13 -30 -22 0 -9 4 -14 9 -10 6 3 9 -3 8 -14 0 -11 -5 -17 -9 -14
-8 4 -5 -22 9 -72 5 -17 4 -18 -10 -7 -13 11 -15 10 -10 -7 3 -12 9 -21 14
-21 5 0 9 -5 9 -11 0 -5 -4 -8 -8 -5 -5 3 -9 -9 -10 -26 -1 -25 2 -29 9 -18 8
11 8 8 3 -10 -4 -14 -10 -26 -15 -28 -4 -2 -4 -15 2 -29 7 -20 6 -28 -8 -40
-10 -8 -13 -12 -6 -9 8 4 11 -12 12 -56 0 -46 -3 -59 -10 -48 -8 11 -9 9 -3
-10 4 -14 7 -41 8 -62 0 -20 4 -39 8 -43 4 -4 3 -18 -2 -31 -5 -13 -6 -24 -2
-24 4 0 0 -5 -8 -10 -10 -6 -11 -10 -2 -10 7 0 12 -14 12 -35 0 -21 -5 -35
-12 -35 -9 0 -9 -3 -3 -8 14 -9 17 -55 4 -47 -13 9 -11 -29 3 -43 9 -9 9 -12
0 -12 -7 0 -12 -7 -12 -16 0 -8 4 -13 9 -10 4 3 6 -6 3 -19 -2 -14 -8 -25 -13
-25 -5 0 -4 -11 1 -25 7 -20 6 -27 -4 -31 -12 -4 -11 -9 5 -25 21 -21 25 -39
9 -39 -5 0 -10 -5 -10 -11 0 -6 7 -8 17 -5 14 6 14 4 -2 -14 -15 -17 -16 -23
-6 -29 9 -6 10 -11 2 -15 -6 -4 -8 -18 -5 -33 5 -18 3 -24 -5 -19 -7 5 -11 -2
-10 -21 0 -25 1 -26 9 -8 8 18 9 18 9 2 1 -10 -6 -20 -15 -24 -13 -5 -13 -7
-2 -15 10 -7 9 -11 -6 -23 -18 -14 -18 -15 -2 -15 10 0 16 -6 14 -12 -3 -7 1
-19 9 -26 7 -8 11 -24 9 -38 -3 -15 0 -24 9 -24 7 0 12 -6 12 -12 -2 -31 26
-78 45 -78 23 0 42 -18 46 -45 2 -11 8 -24 14 -30 7 -7 8 -3 3 13 -6 22 -5 23
14 12 12 -6 26 -8 31 -5 6 3 10 1 10 -4 0 -6 5 -11 11 -11 5 0 7 5 4 10 -8 13
1 13 26 0 14 -8 19 -7 19 1 0 6 9 9 20 6 11 -3 18 0 17 6 -1 7 9 11 25 9 19
-2 28 2 33 17 3 12 15 21 25 21 11 0 24 9 30 21 7 11 14 18 17 16 8 -8 43 31
43 48 0 9 7 18 15 21 8 4 15 12 15 19 0 8 11 27 25 43 56 66 59 84 63 392 2
157 5 286 7 288 1 2 18 -4 36 -12 32 -13 32 -14 9 -15 -24 -1 -24 -2 7 -21 20
-12 30 -25 27 -33 -3 -8 2 -17 10 -20 9 -4 16 -11 16 -17 0 -19 38 -52 50 -45
9 6 9 2 1 -13 -9 -17 -8 -22 9 -27 11 -3 20 -11 20 -16 0 -6 -6 -7 -12 -3 -10
6 -10 5 -1 -8 7 -8 10 -18 6 -21 -3 -4 0 -7 9 -7 8 0 20 -11 26 -25 6 -14 18
-25 26 -25 9 0 13 -9 11 -25 -1 -14 1 -25 6 -25 5 0 6 -6 3 -14 -3 -7 2 -16
11 -20 9 -3 13 -2 10 4 -3 6 -1 10 4 10 6 0 11 -9 11 -21 0 -11 10 -30 23 -41
12 -11 16 -17 10 -13 -7 3 -13 1 -13 -4 0 -6 7 -11 16 -11 9 0 12 -5 8 -12 -5
-8 -2 -9 9 -5 19 7 23 -8 5 -19 -7 -5 -4 -10 10 -15 12 -5 22 -13 22 -19 0 -6
-4 -8 -10 -5 -6 4 -7 -1 -3 -12 4 -10 12 -22 20 -26 7 -4 13 -13 13 -18 0 -6
-6 -7 -12 -3 -8 5 -6 -3 3 -16 10 -14 26 -25 38 -24 19 1 26 -15 23 -47 -1 -3
12 -19 28 -34 17 -16 30 -37 30 -47 0 -10 7 -18 16 -18 8 0 13 -4 10 -9 -3 -5
1 -12 9 -15 8 -3 14 -11 13 -18 -2 -7 5 -12 15 -12 12 1 17 -6 18 -25 1 -25 1
-25 7 -3 l7 23 15 -22 c16 -22 57 -44 78 -40 6 1 12 -3 12 -9 0 -6 4 -9 9 -6
5 4 11 0 14 -6 3 -11 9 -11 26 0 14 8 21 8 21 1 0 -5 5 -7 11 -3 6 3 15 0 20
-7 7 -11 9 -11 9 -1 0 10 9 12 31 7 18 -4 29 -3 26 2 -3 5 10 7 30 5 20 -3 33
0 30 5 -8 12 36 12 45 -1 5 -7 8 -4 8 6 0 10 14 21 38 29 20 6 47 23 59 36 12
13 24 22 26 21 5 -5 117 106 117 116 0 5 8 19 18 30 17 20 17 20 -8 3 -108
-73 -175 -97 -281 -97 -122 0 -231 48 -309 137 -22 25 -103 152 -181 282 -310
516 -479 762 -636 929 -95 101 -127 163 -121 237 9 110 98 188 208 183 l55 -2
5 117 c5 121 9 128 43 74 10 -15 21 -26 25 -23 4 2 13 -2 20 -10 7 -8 10 -14
7 -14 -7 0 12 -24 38 -48 9 -9 17 -22 17 -30 0 -7 5 -10 10 -7 9 6 14 -8 11
-28 -1 -5 3 -6 8 -3 10 7 34 -18 25 -27 -3 -3 3 -8 14 -11 11 -4 25 -20 32
-36 7 -16 16 -27 21 -24 5 3 9 0 9 -7 0 -7 7 -19 15 -28 53 -57 104 -117 105
-123 0 -4 11 -19 25 -33 14 -14 23 -25 20 -25 -4 0 0 -7 7 -15 31 -35 38 -45
38 -59 0 -8 9 -18 20 -21 11 -3 20 -13 20 -21 0 -8 5 -14 12 -14 6 0 9 -3 5
-6 -3 -3 4 -16 16 -29 31 -32 57 -64 57 -71 0 -7 81 -85 106 -102 10 -7 31
-18 47 -25 15 -6 27 -14 27 -18 0 -4 10 -5 22 -1 16 4 19 2 13 -8 -5 -9 -4
-11 4 -6 6 4 37 9 69 11 69 5 104 12 111 23 3 4 22 15 41 22 57 23 146 125
371 423 262 347 407 535 421 543 5 4 20 -3 31 -15 23 -23 29 -80 27 -265 -1
-72 0 -78 17 -72 151 59 293 -30 293 -183 0 -68 -24 -114 -108 -204 -77 -81
-132 -149 -183 -222 -54 -79 -72 -108 -61 -101 19 12 29 -27 32 -119 2 -49 3
-97 2 -105 -3 -140 -5 -170 -14 -170 -5 0 -6 -5 -3 -11 8 -13 13 -109 5 -109
-3 0 -5 -90 -5 -200 0 -120 -4 -200 -9 -200 -6 0 -5 -5 2 -12 7 -7 12 -25 12
-40 0 -15 4 -28 8 -28 4 0 13 -14 19 -31 8 -20 16 -28 24 -23 7 4 9 3 5 -4
-11 -18 48 -51 108 -60 33 -5 56 -5 56 0 0 5 6 8 13 6 16 -4 97 34 97 45 0 5
5 5 10 2 6 -3 10 -2 10 3 0 5 20 32 45 58 107 117 120 181 111 549 -3 143 -6
539 -7 880 -1 341 -5 602 -8 580 -4 -22 -10 75 -12 215 -5 217 -9 263 -25 307
-45 123 -121 187 -240 202 -162 21 -223 -4 -369 -153 -56 -55 -154 -165 -219
-243 -82 -100 -124 -143 -139 -144 -18 -1 -19 -2 -4 -6 16 -4 14 -10 -16 -46
-19 -23 -109 -139 -201 -257 -92 -118 -174 -217 -183 -219 -13 -2 -14 -5 -2
-13 12 -8 11 -9 -1 -5 -8 2 -14 10 -12 17 3 15 -17 41 -28 35 -4 -3 -14 3 -21
13 -13 15 -12 16 4 3 32 -25 16 4 -30 54 l-45 50 32 -45 32 -45 -41 45 c-40
45 -53 68 -28 54 8 -5 8 -2 -2 9 -16 20 -26 23 -15 5 5 -9 2 -8 -10 1 -9 8
-15 20 -12 27 3 7 -3 18 -12 26 -16 12 -16 11 -2 -7 15 -20 14 -20 -8 -1 -23
20 -31 42 -9 30 6 -4 3 2 -7 14 -23 26 -34 29 -15 5 11 -15 10 -14 -9 1 -23
20 -31 42 -9 30 6 -4 3 2 -7 14 -23 26 -34 29 -15 5 11 -15 10 -14 -9 1 -23
20 -31 43 -9 29 6 -4 -3 12 -21 35 -19 23 -39 45 -45 48 -7 4 -3 -4 8 -17 35
-40 51 -63 39 -57 -5 4 -32 35 -59 70 -33 42 -39 55 -20 38 l29 -25 -22 31
c-11 17 -29 37 -39 45 -17 13 -17 13 -3 -6 14 -18 14 -19 -2 -7 -9 8 -15 19
-12 25 2 7 -16 35 -42 62 l-46 50 42 -55 42 -55 -51 55 c-48 53 -65 80 -38 64
6 -5 -8 15 -31 44 -24 29 -47 50 -51 48 -4 -3 -33 24 -64 59 -56 63 -69 83
-44 69 6 -4 -22 28 -63 70 -106 109 -171 140 -299 143 -67 2 -109 -2 -138 -13z
m437 -139 c30 -30 52 -55 49 -55 -2 0 -29 25 -59 55 -30 30 -52 55 -49 55 2 0
29 -25 59 -55z m211 -237 c19 -24 26 -37 16 -29 -20 16 -61 71 -54 71 3 0 20
-19 38 -42z"/>
<path d="M2810 7390 c-6 -11 -8 -20 -6 -20 3 0 10 9 16 20 6 11 8 20 6 20 -3
0 -10 -9 -16 -20z"/>
<path d="M2768 7318 c-12 -23 -28 -55 -34 -70 -7 -14 -22 -36 -33 -47 -12 -12
-23 -31 -24 -43 -2 -12 -9 -24 -15 -26 -7 -2 -12 -8 -12 -14 0 -19 -43 -97
-50 -93 -5 3 -11 -11 -14 -30 -4 -20 -11 -33 -15 -30 -5 3 -16 -13 -25 -35 -9
-23 -32 -55 -51 -71 -30 -26 -35 -38 -35 -73 0 -30 -6 -48 -20 -61 -10 -9 -33
-54 -50 -98 -31 -81 -31 -86 -15 -194 3 -16 -5 -29 -24 -42 -14 -11 -33 -31
-40 -45 -9 -17 -24 -26 -44 -28 -22 -2 -35 -12 -47 -33 l-17 -30 -109 0 c-107
0 -109 0 -112 -24 -4 -23 -3 -24 52 -17 54 6 56 5 56 -18 0 -35 -24 -50 -69
-42 -28 4 -42 2 -51 -9 -12 -14 -17 -12 -44 13 -17 17 -41 33 -53 37 -28 8
-29 21 -3 37 26 17 25 21 -8 60 -16 18 -36 53 -46 77 -16 41 -16 45 0 62 9 11
25 19 36 19 14 0 18 -8 18 -33 0 -31 24 -67 45 -67 12 0 34 33 35 51 0 8 6 23
13 33 12 16 14 16 39 -3 34 -27 46 -26 60 4 7 16 19 25 35 25 50 0 18 35 -42
45 -46 9 -75 30 -75 57 0 21 24 24 66 8 15 -6 34 -8 42 -5 22 8 -3 32 -41 41
-49 10 -51 14 -22 44 30 32 21 45 -25 35 -27 -6 -29 -4 -28 23 1 40 -8 52 -42
52 -25 0 -31 -5 -41 -40 -7 -22 -20 -42 -30 -45 -15 -5 -16 -10 -7 -31 17 -36
-1 -51 -42 -34 -27 11 -34 11 -48 -4 -18 -18 -13 -20 41 -16 50 3 24 -57 -36
-84 -8 -3 -4 -11 11 -22 49 -36 6 -86 -50 -58 -15 8 -40 14 -56 14 -17 0 -41
11 -62 30 -39 35 -41 35 -81 14 -24 -12 -34 -13 -45 -3 -18 15 -18 43 1 59 12
10 14 24 9 59 -9 61 -9 61 -50 50 -48 -14 -63 0 -61 56 1 29 -4 49 -16 63 -12
13 -16 28 -12 41 8 25 -19 28 -49 6 -11 -8 -23 -15 -28 -15 -15 0 -8 38 12 73
20 33 20 34 1 51 -28 25 -104 19 -109 -9 -2 -11 -13 -30 -24 -42 -19 -20 -19
-22 -3 -47 17 -25 16 -25 -20 -41 -48 -20 -108 -19 -148 1 -32 17 -147 128
-147 143 0 13 -104 49 -160 55 -134 13 -167 19 -197 32 -60 27 -127 12 -183
-42 -27 -26 -45 -34 -72 -34 -46 0 -68 8 -68 25 0 26 -31 45 -75 45 -47 0 -63
-17 -45 -50 15 -28 12 -40 -13 -49 -22 -9 -23 -14 -25 -120 l-3 -112 37 -34
c31 -29 35 -37 24 -50 -7 -8 -23 -15 -36 -15 l-24 0 0 -269 c0 -309 -11 -280
104 -287 34 -3 89 -7 122 -10 l61 -6 8 48 c9 61 17 44 35 -80 10 -72 10 -90 0
-96 -10 -6 -13 -39 -11 -128 1 -66 -1 -122 -6 -125 -4 -3 -38 6 -76 18 -82 28
-182 41 -191 26 -4 -6 -16 -11 -27 -11 -14 0 -19 -7 -19 -29 0 -26 4 -30 38
-36 40 -6 70 -21 61 -29 -2 -3 -26 -6 -52 -7 l-47 -3 0 -49 0 -48 63 2 c34 1
80 -4 102 -10 22 -6 93 -11 157 -11 92 0 120 -3 132 -16 9 -8 16 -20 16 -25 0
-6 5 -7 10 -4 6 4 9 -10 9 -37 -1 -24 -4 -33 -6 -20 -7 34 -33 28 -33 -8 0
-20 -7 -33 -22 -41 -31 -17 -137 -13 -228 7 -41 9 -102 17 -135 18 l-60 1 -3
-32 -3 -33 79 0 c119 0 175 -9 169 -29 -12 -44 -12 -46 16 -49 35 -4 60 15 53
41 -4 18 -1 19 56 14 33 -3 65 -10 72 -17 15 -15 11 -92 -8 -128 -9 -17 -30
-41 -48 -53 -18 -12 -40 -31 -50 -43 -17 -21 -17 -21 -283 -13 -41 2 -50 -1
-53 -17 -4 -17 1 -18 55 -12 45 5 63 3 78 -9 17 -13 18 -16 5 -25 -8 -5 -31
-10 -50 -10 -19 0 -40 -4 -46 -8 -22 -15 -44 -77 -44 -124 l0 -48 65 0 c61 0
65 2 79 28 8 16 21 34 29 40 8 7 12 22 10 36 -6 28 9 35 92 43 46 4 65 1 80
-11 20 -16 20 -16 -2 -35 -31 -26 -29 -31 12 -31 36 0 46 15 23 38 -9 9 -8 16
5 30 9 10 17 27 17 38 0 28 11 40 53 58 27 11 37 12 34 3 -2 -6 -9 -11 -15
-10 -7 2 -15 -12 -20 -30 -14 -49 1 -61 70 -53 68 7 94 0 77 -20 -7 -8 -31
-14 -58 -14 -48 0 -81 -13 -68 -27 9 -8 59 -8 112 1 17 2 33 5 36 5 4 1 9 10
12 21 6 24 48 27 67 5 7 -8 18 -15 25 -15 24 0 46 -37 43 -72 -3 -31 -5 -33
-46 -36 -23 -2 -42 -6 -43 -10 -1 -4 -2 -53 -3 -109 -1 -56 -4 -104 -7 -107
-9 -9 -110 -9 -119 0 -6 6 -13 34 -17 63 -9 80 -52 82 -53 3 0 -26 -5 -35 -20
-39 -12 -3 -28 -19 -36 -35 -13 -26 -18 -28 -49 -22 -27 5 -36 3 -41 -11 -9
-23 12 -43 28 -27 16 16 67 15 98 -3 33 -19 64 -19 80 0 10 12 10 18 1 29 -8
10 -9 16 -1 21 5 3 10 2 10 -3 0 -18 59 -36 83 -25 35 15 70 1 79 -32 6 -23 4
-33 -9 -42 -21 -16 -55 -17 -70 -2 -8 8 -21 9 -40 3 -15 -5 -80 -9 -143 -9
-107 0 -115 -1 -125 -21 -25 -51 -34 -55 -119 -53 -87 2 -216 -10 -216 -20 0
-5 147 -10 295 -10 17 0 47 -6 67 -12 29 -9 41 -9 53 1 30 25 317 52 330 31 3
-5 10 -33 15 -63 6 -29 17 -58 25 -64 8 -6 17 -30 21 -54 5 -27 17 -53 32 -67
l25 -23 -35 0 c-24 0 -41 7 -56 25 l-22 25 -37 -20 c-21 -11 -52 -20 -69 -20
-17 0 -38 -7 -45 -17 -22 -25 -72 -42 -149 -49 -62 -6 -72 -5 -85 12 -13 17
-16 17 -25 4 -6 -8 -17 -39 -26 -68 -21 -71 -46 -87 -122 -78 -52 6 -63 4
-124 -26 l-68 -33 0 -157 0 -158 45 0 c36 0 47 -5 61 -25 18 -28 13 -55 -11
-55 -21 0 -19 -20 6 -47 20 -20 20 -23 5 -29 -9 -4 -37 -4 -62 0 l-44 6 0 -60
c0 -39 5 -62 13 -67 8 -4 17 -20 21 -35 5 -21 2 -31 -14 -40 -20 -13 -20 -20
-20 -1550 l0 -1538 395 0 c387 0 395 0 395 20 0 11 18 57 39 102 22 46 44 100
50 122 5 21 16 46 24 55 7 9 21 37 31 62 9 26 25 54 36 64 11 10 24 33 30 51
7 19 15 34 19 34 13 0 7 -43 -11 -76 -17 -30 -41 -148 -53 -256 -7 -66 -17
-77 -42 -48 -10 11 -21 20 -24 20 -9 0 -26 -52 -34 -107 l-7 -43 3507 0 3507
0 -8 32 c-6 30 -5 31 10 19 9 -8 15 -20 12 -28 -8 -20 11 -24 105 -21 l84 3
-42 25 c-24 14 -43 30 -43 36 0 23 -41 63 -71 69 -16 4 -50 22 -74 41 -25 19
-53 34 -63 34 -34 0 -46 18 -47 67 -2 112 -18 309 -27 326 -7 13 -5 25 6 42
22 34 21 120 -2 143 -17 17 -17 19 4 50 l22 32 5 -33 c3 -17 6 -70 6 -117 1
-46 3 -92 6 -101 5 -16 136 -120 255 -202 30 -21 77 -54 104 -73 56 -40 73
-42 86 -11 8 21 9 21 9 -5 1 -39 38 -76 151 -154 56 -38 136 -93 178 -121 l76
-53 818 0 818 0 0 620 c0 527 -2 620 -14 620 -8 0 -81 -17 -163 -39 -140 -36
-151 -37 -179 -23 -27 14 -27 16 -9 24 11 4 97 25 190 46 l170 38 3 63 c3 56
1 62 -15 57 -10 -3 -108 -28 -218 -54 -110 -27 -231 -59 -270 -70 -105 -32
-121 -31 -217 16 -48 23 -93 42 -101 42 -7 0 -40 14 -72 30 -32 17 -64 30 -70
30 -7 0 -32 13 -56 30 -28 18 -63 32 -97 36 -29 3 -63 14 -75 24 l-22 18 45
12 c25 6 81 20 125 31 44 11 105 27 136 35 77 20 92 18 154 -15 77 -41 141
-48 208 -23 79 31 237 72 277 72 20 0 53 -9 73 -19 21 -11 57 -22 80 -26 23
-4 51 -12 62 -19 11 -7 28 -15 38 -19 16 -6 17 51 17 1110 l0 1116 -57 -7
c-192 -21 -183 -22 -183 7 0 39 -10 57 -32 57 -17 0 -20 -5 -14 -30 5 -28 3
-30 -24 -30 -38 0 -297 20 -570 45 -25 2 -92 7 -150 10 -290 16 -274 23 205
85 127 17 241 34 255 38 14 5 52 10 85 11 42 1 64 7 73 18 11 16 12 15 12 0 0
-13 9 -17 34 -17 18 0 47 -3 64 -6 29 -6 30 -4 37 36 l7 42 22 -38 c19 -35 27
-40 71 -46 47 -6 75 -11 138 -24 22 -5 27 -2 27 15 0 18 -6 21 -44 21 -25 0
-48 6 -55 14 -9 11 -2 15 44 21 l55 6 0 70 0 69 -52 0 c-29 0 -60 5 -68 10
-11 7 5 10 53 10 l67 0 0 390 c0 326 -2 390 -14 390 -7 0 -21 -12 -31 -26 -14
-21 -21 -24 -43 -18 -15 4 -43 8 -62 9 -19 1 -41 3 -48 4 -8 0 -41 27 -75 60
-34 32 -75 61 -92 65 -41 10 -45 22 -28 72 16 49 16 48 44 33 17 -9 28 -6 57
15 44 30 106 45 187 46 80 0 105 8 105 32 0 19 -5 19 -122 14 -68 -4 -155 -9
-194 -12 -56 -4 -74 -2 -86 10 -20 19 -36 220 -19 239 10 12 52 19 319 48 80
9 102 15 102 27 0 13 -18 14 -142 8 -77 -4 -165 -12 -195 -16 -73 -12 -99 -1
-107 45 -7 33 -10 36 -34 31 -26 -5 -129 -10 -165 -7 -17 1 -18 8 -12 69 3 37
9 79 11 95 5 26 4 27 -40 27 -24 0 -48 -5 -51 -10 -7 -11 28 -107 54 -149 13
-21 13 -25 -3 -37 -11 -8 -45 -13 -87 -13 -66 0 -69 1 -69 24 0 15 -9 29 -22
36 -13 7 -26 16 -29 22 -8 11 -2 144 7 158 8 14 46 11 64 -6 15 -14 23 -14 74
-1 31 8 114 18 184 22 126 7 127 7 153 38 23 26 29 29 42 18 9 -8 17 -28 19
-45 2 -26 7 -32 27 -32 18 0 27 8 35 32 14 40 21 47 42 39 13 -5 14 -9 5 -20
-7 -8 -9 -25 -6 -38 4 -16 1 -29 -9 -37 -9 -8 -16 -17 -16 -22 0 -12 76 -10
180 4 l85 12 3 48 c3 46 2 47 -26 47 -16 0 -32 3 -35 7 -9 8 24 32 46 33 14 0
17 9 17 50 l0 50 -54 0 c-51 0 -55 -2 -64 -30 -7 -18 -20 -32 -36 -36 -37 -9
-234 0 -244 11 -6 6 -13 35 -16 66 -6 45 -4 60 9 73 24 24 33 20 52 -21 19
-39 58 -57 112 -51 22 3 27 9 31 43 l5 40 55 8 c30 4 76 10 103 13 46 6 47 7
47 40 0 34 0 34 -45 34 -40 0 -45 2 -45 23 0 27 -25 65 -36 55 -4 -5 -7 -24
-6 -43 2 -45 -15 -54 -117 -62 -78 -6 -80 -5 -86 18 -3 13 -6 47 -6 74 0 116
-5 175 -16 186 -19 19 -41 -6 -45 -49 l-3 -37 -55 4 -55 3 19 -21 c15 -17 27
-20 51 -15 38 7 41 2 50 -83 10 -83 5 -86 -160 -90 -73 -2 -144 1 -158 6 -17
7 -30 6 -43 -3 -30 -20 -64 -26 -92 -15 -20 8 -34 6 -58 -7 -26 -14 -36 -15
-47 -6 -18 15 -29 90 -16 114 22 41 94 6 82 -40 -3 -13 -1 -22 6 -22 6 0 11
13 11 30 0 32 25 55 70 64 14 2 41 8 60 11 19 4 51 18 70 30 19 13 50 26 68
30 31 6 32 8 18 24 -9 10 -16 27 -16 38 0 17 -5 19 -37 14 -34 -6 -38 -10 -44
-44 -3 -20 -9 -40 -13 -44 -4 -4 -35 -9 -70 -11 -59 -4 -63 -3 -69 19 -13 47
-8 98 11 108 30 16 171 42 196 35 17 -4 25 0 30 12 11 29 -8 38 -58 25 -25 -6
-60 -11 -78 -11 -18 0 -46 -7 -62 -15 -40 -21 -95 -20 -102 3 -9 29 -20 46
-33 50 -9 3 -11 -7 -6 -39 4 -25 2 -57 -4 -72 -10 -27 -13 -28 -55 -22 -33 5
-50 3 -70 -10 -31 -21 -79 -14 -111 14 -11 10 -40 21 -64 24 -50 6 -57 12 -66
49 -6 23 -2 29 24 42 16 9 50 16 75 16 25 0 71 7 103 15 31 8 73 15 93 15 19
0 62 11 95 25 33 13 72 25 87 25 26 0 28 -3 26 -40 -1 -22 2 -43 6 -47 14 -14
30 19 28 57 -2 22 -1 40 1 40 3 0 40 9 82 19 57 15 83 17 98 10 23 -13 23 -13
32 39 8 52 -9 57 -55 12 -18 -18 -41 -30 -57 -30 -14 0 -65 -9 -112 -19 -164
-38 -236 -50 -296 -53 l-60 -3 -9 60 c-4 33 -10 67 -13 75 -8 23 -21 -15 -28
-83 -8 -75 -21 -82 -155 -82 l-104 0 -10 -30 c-6 -16 -12 -32 -14 -35 -7 -10
-136 -21 -286 -23 l-159 -2 -20 47 c-13 32 -26 48 -38 48 -10 0 -24 12 -31 27
-21 43 -38 41 -38 -5 0 -31 -4 -42 -19 -47 -24 -7 -89 19 -97 40 -7 17 12 71
34 98 22 25 1 22 -58 -8 -27 -14 -58 -25 -70 -25 -11 0 -20 -6 -20 -14 0 -11
10 -13 38 -9 26 4 42 1 50 -10 17 -20 -2 -34 -58 -40 -25 -3 -57 -8 -71 -12
-19 -5 -33 0 -58 21 -26 22 -45 28 -103 32 l-71 5 7 -29 c3 -16 14 -76 23
-132 l17 -104 40 6 c21 4 47 11 57 17 17 9 17 13 6 42 -12 28 -19 32 -55 35
-34 3 -42 7 -42 23 0 10 1 19 3 20 2 1 237 10 331 13 25 1 41 -4 46 -14 3 -8
14 -30 23 -48 12 -25 13 -34 4 -37 -6 -2 -67 -6 -134 -9 -145 -8 -163 -12
-133 -33 11 -8 20 -24 20 -36 0 -41 14 -51 53 -38 26 9 34 16 30 28 -8 20 22
43 58 43 31 0 46 -15 51 -50 4 -31 33 -38 58 -15 18 17 21 17 47 -1 19 -13 47
-19 86 -19 52 -1 61 2 78 26 10 14 23 39 29 55 11 28 12 28 26 10 19 -27 18
-48 -6 -69 -11 -9 -20 -25 -20 -36 0 -38 -20 -41 -193 -36 -132 4 -178 2 -224
-11 -32 -8 -93 -17 -136 -18 -43 -2 -80 -6 -84 -9 -10 -11 8 -95 24 -108 13
-11 17 -10 29 6 8 10 14 24 14 31 0 25 66 47 170 56 120 12 301 10 313 -2 5
-4 3 -18 -3 -30 -10 -18 -9 -25 3 -37 12 -12 19 -13 37 -3 31 17 35 6 19 -48
l-15 -47 -79 -7 c-44 -3 -116 -4 -161 -1 -56 4 -106 0 -165 -12 -46 -9 -104
-17 -129 -16 -24 0 -48 -5 -52 -12 -4 -7 -8 -41 -8 -76 l0 -64 30 44 c16 24
30 49 30 56 0 16 37 36 75 40 17 2 43 8 59 13 15 5 33 7 39 3 6 -4 66 -7 134
-7 82 -1 126 -5 131 -13 4 -6 7 -35 7 -64 0 -43 -3 -54 -17 -57 -12 -2 -21 6
-28 23 -8 21 -14 25 -31 20 -15 -5 -29 1 -49 20 l-28 26 -36 -31 c-23 -21 -38
-44 -42 -68 -13 -75 -32 -87 -77 -52 -32 26 -58 25 -81 -1 -16 -19 -25 -21
-71 -16 l-54 5 -6 -56 c-3 -31 -13 -90 -21 -131 -17 -90 -18 -107 -1 -109 6 0
27 -3 46 -6 33 -5 101 15 101 31 0 4 4 15 10 23 16 25 50 -16 50 -60 l0 -37
-68 -7 c-38 -4 -75 -5 -83 -2 -8 2 -26 7 -41 10 -17 4 -28 13 -28 23 0 32 -10
5 -39 -103 -15 -60 -36 -124 -45 -141 -27 -54 -23 -62 32 -51 63 12 218 0 233
-19 17 -20 1 -31 -51 -35 -44 -3 -45 -4 -47 -38 -3 -44 -24 -143 -32 -151 -3
-4 -25 -9 -48 -13 -39 -6 -42 -4 -62 29 -25 43 -61 47 -93 10 -26 -30 -43 -33
-28 -5 6 11 9 20 6 20 -2 0 -20 -29 -40 -64 -35 -63 -45 -93 -27 -82 17 11
213 27 242 21 28 -6 29 -9 29 -61 0 -42 5 -59 21 -75 25 -25 18 -32 -46 -50
-30 -9 -68 -8 -148 0 -114 12 -157 25 -157 48 0 25 -19 4 -82 -90 -199 -297
-468 -562 -778 -767 -108 -71 -346 -191 -495 -250 -233 -91 -527 -150 -780
-157 -93 -2 -181 -5 -195 -6 -65 -3 -164 5 -140 12 25 7 -16 15 -130 27 -19 2
-55 8 -80 14 -58 14 -82 18 -155 30 -96 16 -138 26 -162 39 -13 6 -23 9 -23 5
0 -3 -6 -2 -12 3 -7 6 -28 13 -46 16 -18 4 -56 18 -86 32 -29 14 -60 25 -68
25 -8 0 -18 3 -22 8 -4 4 -11 7 -14 7 -4 1 -26 11 -49 23 -24 12 -43 19 -43
16 0 -4 -8 2 -17 12 -10 11 -25 19 -33 19 -8 0 -36 12 -62 27 -27 15 -48 24
-48 20 0 -4 -4 -2 -8 4 -4 6 -34 28 -67 49 -33 21 -62 40 -65 44 -3 3 -18 13
-35 21 -48 24 -215 137 -210 142 3 3 -7 11 -23 19 -15 8 -34 22 -43 31 -9 10
-18 18 -21 18 -16 0 -339 337 -361 376 -6 11 -16 24 -22 29 -19 17 -85 112
-85 123 0 6 -3 12 -8 14 -4 2 -23 28 -42 58 -19 30 -37 57 -40 60 -3 3 -23 40
-45 83 -22 43 -54 106 -72 140 -20 39 -32 54 -33 42 0 -11 -12 5 -26 39 -14
32 -23 60 -21 63 3 2 10 -12 17 -32 7 -20 14 -34 16 -32 8 7 -28 87 -36 82
-12 -8 -52 113 -45 138 4 15 3 18 -3 9 -23 -33 -102 351 -123 597 -36 430 66
948 265 1346 46 89 57 135 14 53z m-2260 -486 c2 -7 -3 -12 -12 -12 -9 0 -16
7 -16 16 0 17 22 14 28 -4z m166 2 c17 -7 22 -34 6 -34 -16 0 -60 23 -60 32 0
9 31 11 54 2z m-304 -40 c0 -16 -9 -18 -29 -5 -7 5 -11 14 -7 19 9 15 36 4 36
-14z m422 -18 c16 -24 -24 -86 -57 -86 -14 0 -35 42 -35 71 0 35 72 47 92 15z
m-254 -58 c2 -19 9 -28 21 -28 26 0 41 -20 41 -57 0 -22 -6 -36 -19 -43 -29
-15 -39 -13 -56 14 -14 20 -14 29 -4 48 l12 23 -26 -24 c-31 -28 -57 -22 -57
15 0 17 -6 28 -20 31 -20 5 -27 33 -13 47 4 4 32 6 63 4 52 -3 55 -5 58 -30z
m137 2 c8 -13 -13 -40 -31 -40 -14 0 -19 31 -7 43 10 10 31 8 38 -3z m-555
-25 c0 -8 -4 -15 -10 -15 -5 0 -10 7 -10 15 0 8 5 15 10 15 6 0 10 -7 10 -15z
m78 3 c-7 -19 -38 -22 -38 -4 0 10 9 16 21 16 12 0 19 -5 17 -12z m802 -18 c0
-13 -7 -20 -20 -20 -19 0 -27 20 -13 33 13 14 33 6 33 -13z m-667 -26 c10 -10
-12 -44 -28 -44 -18 0 -20 21 -3 38 13 13 22 15 31 6z m8194 -191 c-21 -22
-32 -11 -17 17 9 16 15 19 23 11 8 -8 7 -16 -6 -28z m-229 1 c4 -26 -20 -37
-43 -21 -10 8 -14 19 -9 30 9 25 48 18 52 -9z m-7140 -56 c7 -7 12 -23 12 -37
l0 -26 -20 30 c-11 17 -20 33 -20 38 0 11 15 8 28 -5z m8022 -67 c13 -25 -2
-36 -30 -21 -23 12 -26 26 -7 33 21 9 26 7 37 -12z m604 -213 c31 -44 14 -148
-24 -148 -5 0 -10 -15 -12 -32 -2 -26 -8 -34 -27 -36 -29 -4 -43 15 -30 41 8
14 7 23 -5 36 -9 10 -16 32 -16 49 0 32 -13 42 -26 21 -3 -6 -1 -16 5 -22 16
-16 13 -42 -8 -61 -14 -13 -47 -17 -164 -22 -165 -6 -159 -9 -172 78 -6 42 -5
48 19 63 14 9 61 21 103 26 43 5 110 13 148 18 39 5 98 9 132 10 53 1 64 -2
77 -21z m-7814 -50 c0 -7 -5 -20 -10 -28 -7 -12 -12 -12 -21 -3 -9 9 -9 16 1
28 15 18 30 20 30 3z m6400 -134 c0 -15 -6 -24 -15 -24 -15 0 -21 40 -9 53 12
11 24 -3 24 -29z m1225 -14 c22 -10 21 -10 -15 -14 -14 -2 -58 -6 -97 -11 -50
-5 -73 -4 -73 3 0 6 21 14 48 17 26 4 52 8 57 10 18 6 60 4 80 -5z m-445 -160
c0 -5 -4 -10 -10 -10 -5 0 -10 5 -10 10 0 6 5 10 10 10 6 0 10 -4 10 -10z
m-8135 -56 c0 -19 -5 -29 -15 -29 -16 0 -25 28 -16 51 10 25 31 10 31 -22z
m6775 -3 c0 -21 -13 -41 -26 -41 -8 0 -14 10 -14 25 0 18 5 25 20 25 11 0 20
-4 20 -9z m90 -1 c0 -5 -2 -10 -4 -10 -3 0 -8 5 -11 10 -3 6 -1 10 4 10 6 0
11 -4 11 -10z m-7247 -7 c31 -5 38 -9 35 -27 -3 -19 -9 -21 -76 -21 -59 0 -75
-3 -83 -17 -14 -25 -42 -22 -69 8 -21 21 -22 27 -10 34 8 5 31 10 50 11 19 1
49 5 65 9 41 10 45 11 88 3z m8560 -16 c3 -7 -1 -24 -9 -38 -7 -13 -13 -36
-14 -51 0 -16 -4 -28 -10 -28 -11 0 -14 113 -3 123 11 11 31 8 36 -6z m-518
-37 c3 -5 -3 -10 -14 -10 -11 0 -23 5 -26 10 -3 6 3 10 14 10 11 0 23 -4 26
-10z m-7635 -35 c34 -12 35 -13 38 -73 2 -33 8 -65 15 -70 7 -6 48 -12 92 -13
l80 -4 3 40 c4 62 11 85 27 85 12 0 15 -21 15 -123 0 -68 -3 -127 -7 -130 -3
-4 -5 -68 -4 -143 2 -86 -2 -140 -9 -148 -7 -10 -7 -22 0 -42 6 -15 10 -41 8
-58 l-3 -31 92 -5 c56 -3 97 -10 105 -18 19 -19 19 -139 0 -147 -24 -9 -32 4
-32 50 0 61 -18 69 -134 62 -49 -2 -102 0 -118 5 -25 9 -27 12 -14 30 15 21
10 57 -8 59 -41 3 -102 -5 -108 -14 -4 -7 -8 -23 -8 -36 0 -23 -2 -24 -57 -17
-67 8 -81 17 -85 59 -4 45 -36 50 -44 8 -11 -53 -16 -51 -80 22 -9 11 -13 30
-11 45 4 26 4 26 12 5 9 -27 18 -29 34 -9 9 11 10 29 2 72 -17 89 -14 205 5
233 13 18 14 28 5 47 -6 14 -11 46 -12 72 0 26 -3 64 -7 84 -6 30 -10 36 -22
28 -11 -7 -15 -28 -15 -77 0 -67 -1 -68 -27 -71 -23 -3 -28 1 -28 17 0 12 4
21 8 21 4 0 8 9 9 20 1 11 -2 20 -7 20 -5 0 -11 12 -15 28 -3 16 -20 36 -40
50 -19 12 -35 26 -35 31 0 11 142 1 158 -11 8 -8 12 -6 12 5 0 9 5 28 12 42
11 25 13 25 87 19 42 -4 92 -12 111 -19z m-685 -15 c-3 -5 -12 -10 -20 -10 -8
0 -17 5 -20 10 -4 6 5 10 20 10 15 0 24 -4 20 -10z m178 -41 c8 -13 6 -24 -8
-45 l-18 -28 -15 31 c-8 17 -12 39 -8 48 7 20 35 16 49 -6z m9177 -29 c22 -14
5 -24 -63 -36 -34 -6 -89 -18 -122 -27 -33 -8 -72 -18 -87 -21 -33 -8 -37 -38
-13 -106 14 -39 14 -44 -1 -55 -18 -13 -61 -9 -82 8 -9 7 -12 23 -8 45 8 53
-7 72 -57 72 -61 0 -71 -10 -60 -56 8 -36 12 -39 48 -44 60 -8 66 -15 64 -76
-2 -43 -6 -57 -21 -65 -12 -6 -113 -11 -244 -12 l-225 -2 -3 133 c-3 173 -2
175 94 183 269 23 465 43 525 54 83 15 234 18 255 5z m-14 -120 c1 -20 -15
-50 -25 -50 -13 0 -22 30 -15 52 7 22 39 20 40 -2z m-926 -31 c0 -10 -4 -19
-10 -19 -5 0 -10 12 -10 26 0 14 4 23 10 19 6 -3 10 -15 10 -26z m-821 -10
c18 -32 8 -75 -21 -90 -13 -7 -55 -13 -95 -13 -61 -1 -74 2 -87 19 -9 11 -16
27 -16 37 0 22 48 38 80 26 34 -13 65 -3 84 28 20 29 35 27 55 -7z m1629 -19
c2 -36 8 -48 25 -55 15 -7 23 -20 25 -44 5 -54 -6 -98 -27 -104 -10 -2 -18
-12 -18 -21 0 -13 6 -16 24 -11 19 4 27 -1 44 -30 23 -39 28 -40 76 -23 41 15
65 -1 43 -27 -11 -13 -26 -15 -69 -11 -132 13 -167 19 -186 32 -11 8 -27 14
-37 14 -9 0 -20 9 -23 20 -6 19 -22 26 -75 32 -14 2 -28 8 -32 13 -12 16 -9
73 4 81 12 8 79 22 131 28 42 4 43 14 4 31 -21 8 -37 19 -37 23 0 4 16 29 36
55 29 40 40 48 62 45 24 -3 27 -7 30 -48z m-7560 -29 c7 -4 21 -23 30 -42 19
-37 49 -50 156 -66 68 -9 86 -27 70 -70 l-9 -28 -130 -9 c-128 -9 -129 -9
-148 15 -15 19 -18 33 -13 69 18 148 18 148 44 131z m5672 -13 c0 -4 -7 -8
-15 -8 -8 0 -15 4 -15 8 0 5 7 9 15 9 8 0 15 -4 15 -9z m1082 -94 c-1 -20 -3
-38 -4 -40 -2 -1 -16 0 -31 3 -25 5 -28 9 -22 32 9 36 36 64 48 52 6 -6 10
-27 9 -47z m-464 -27 c5 -27 -17 -47 -52 -47 -36 0 -56 15 -56 42 0 38 101 42
108 5z m-7582 -18 c-3 -17 -6 -38 -6 -46 0 -8 -4 -11 -10 -8 -5 3 -10 24 -10
46 0 29 4 39 16 39 13 0 15 -7 10 -31z m7664 -18 c0 -59 15 -68 112 -69 46 -1
107 -4 136 -8 43 -5 50 -9 41 -20 -8 -9 -34 -14 -78 -14 -38 -1 -76 -7 -91
-15 -18 -10 -20 -14 -8 -15 9 0 30 -12 47 -26 29 -24 32 -24 53 -10 27 19 68
21 90 4 9 -7 21 -30 27 -51 9 -36 8 -39 -17 -49 -16 -6 -70 -8 -132 -5 -118 5
-130 3 -130 -23 0 -27 19 -30 158 -23 176 8 168 3 166 102 -1 45 -5 98 -9 119
-4 25 -1 43 8 56 14 19 15 19 28 -5 7 -14 13 -63 14 -119 2 -113 7 -130 40
-151 20 -12 40 -14 88 -8 92 11 108 -17 22 -40 -31 -8 -44 -8 -62 4 -23 15
-23 15 -23 -24 0 -49 8 -71 26 -71 8 0 14 -4 14 -10 0 -5 -8 -10 -17 -10 -9 0
-25 -7 -35 -16 -23 -22 -48 -3 -48 35 0 50 -13 102 -24 98 -6 -2 -13 -30 -16
-63 l-5 -59 -180 0 c-125 -1 -187 -5 -203 -13 -41 -23 -396 -8 -428 18 -21 18
-21 305 0 313 8 3 99 9 203 12 103 3 197 8 208 10 11 2 28 -2 39 -10 16 -12
23 -12 47 1 41 21 36 27 -15 22 -39 -5 -48 -2 -70 21 -18 19 -23 30 -16 41 5
8 10 33 10 56 0 22 3 44 7 47 15 16 23 5 23 -32z m-7867 -52 c1 -13 10 -36 20
-50 17 -25 15 -59 -4 -59 -5 0 -11 12 -14 28 -3 15 -10 42 -16 59 -6 18 -7 38
-4 44 9 14 16 6 18 -22z m8801 25 c9 -3 16 -16 16 -28 0 -30 18 -46 51 -46 30
0 66 -28 52 -40 -14 -12 -152 -20 -159 -9 -9 16 -104 0 -141 -23 -39 -23 -49
-19 -58 25 -10 44 -24 59 -48 51 -11 -3 -38 0 -59 7 -51 17 -59 5 -56 -81 3
-57 1 -65 -16 -68 -27 -6 -45 23 -39 61 2 18 0 43 -5 57 -6 16 -6 33 1 48 9
19 17 23 41 19 17 -2 40 0 51 4 35 16 339 34 369 23z m-7229 -53 l60 -6 6 -65
c3 -36 11 -75 17 -87 16 -29 15 -88 0 -101 -21 -16 -176 -26 -193 -12 -23 19
-22 252 1 275 10 9 23 13 33 9 9 -3 43 -9 76 -13z m6191 -1 c8 0 14 -3 14 -7
0 -5 -26 -9 -58 -10 -56 -1 -56 -1 -27 12 17 8 36 12 43 10 8 -3 20 -5 28 -5z
m-156 -16 c0 -2 -21 -4 -47 -3 -32 0 -42 3 -29 8 18 7 76 3 76 -5z m-7340
-127 c0 -20 -9 -25 -31 -20 -28 8 -24 33 6 33 14 0 25 -6 25 -13z m1538 -59
c-3 -36 -30 -46 -36 -15 -5 26 5 47 23 47 12 0 15 -8 13 -32z m-1160 4 c2 -7
-3 -12 -12 -12 -9 0 -16 7 -16 16 0 17 22 14 28 -4z m6712 -42 c0 -36 -26 -41
-39 -7 -11 27 -6 37 20 37 14 0 19 -7 19 -30z m-6939 1 l24 -19 -28 -7 c-28
-7 -77 15 -77 35 0 17 57 11 81 -9z m206 -5 c21 -8 58 -17 82 -19 49 -6 66
-18 57 -42 -5 -14 -18 -15 -103 -9 -120 9 -147 15 -151 38 -9 44 45 58 115 32z
m1050 -88 c41 -24 61 -66 55 -108 -4 -26 -8 -30 -32 -28 -15 1 -35 -4 -44 -11
-21 -18 -31 -77 -18 -117 9 -30 8 -36 -11 -49 -12 -8 -37 -15 -57 -16 -19 0
-44 -4 -55 -9 -18 -8 -18 -9 5 -10 14 -1 42 -1 62 0 42 2 42 1 53 -103 9 -80
1 -87 -95 -87 -63 0 -80 -3 -94 -19 -10 -11 -41 -25 -69 -32 -88 -21 -149 -85
-99 -104 16 -6 16 -7 -2 -21 -13 -9 -45 -14 -90 -14 -85 0 -268 24 -315 41
-26 9 -51 9 -110 0 -42 -6 -99 -11 -126 -11 l-50 0 3 113 c1 61 4 121 5 132 2
19 10 20 131 22 97 1 134 -2 149 -12 20 -14 19 -14 -7 -26 -23 -11 -26 -17
-21 -43 11 -57 27 -87 44 -84 13 3 15 16 13 73 -3 76 3 85 57 85 21 0 44 9 63
25 20 17 42 25 66 25 38 0 71 14 60 25 -15 15 -186 19 -363 10 -74 -4 -145 -3
-165 2 l-35 9 -6 145 c-4 79 -4 147 -2 152 2 4 13 2 24 -4 15 -8 34 -7 71 1
51 13 97 7 200 -22 27 -8 45 -8 66 1 22 9 40 9 75 0 34 -8 55 -8 78 0 26 9 37
8 55 -4 21 -13 23 -21 18 -59 -7 -51 3 -61 56 -58 62 4 70 10 71 50 1 51 9 67
47 96 27 19 41 23 69 19 30 -5 39 -2 54 18 19 24 20 24 34 5 20 -26 19 -33 -4
-41 -21 -6 -31 -33 -31 -81 0 -38 21 -58 50 -49 19 6 21 13 19 73 -3 66 -2 67
24 70 15 2 27 9 27 16 0 39 47 46 97 14z m5534 -136 c5 -14 8 -73 7 -131 l-3
-106 -154 -3 c-84 -1 -176 2 -205 8 -28 6 -64 14 -81 17 -36 7 -56 31 -49 57
4 10 7 24 8 30 9 46 34 86 54 86 5 0 12 -23 16 -50 6 -42 11 -52 33 -61 20 -7
32 -6 51 7 22 14 24 21 20 67 -3 29 -7 59 -9 67 -3 10 3 15 16 15 11 1 52 6
90 13 141 25 192 21 206 -16z m642 10 c23 -2 67 -46 67 -67 0 -19 -36 -19 -70
-1 -22 12 -29 12 -64 -6 -33 -17 -51 -19 -100 -14 -33 3 -75 12 -94 18 -30 11
-35 11 -48 -7 -8 -10 -14 -35 -14 -55 0 -29 -6 -39 -29 -53 -42 -25 -58 -21
-65 14 -8 39 -6 106 3 139 7 24 10 25 116 30 101 5 255 5 298 2z m494 -81 c7
-11 29 -27 48 -37 38 -18 33 -33 -10 -34 -11 0 -32 -6 -47 -14 -15 -8 -29 -12
-32 -8 -16 15 3 112 21 112 5 0 14 -9 20 -19z m-158 -5 c13 -16 -1 -56 -19
-56 -4 0 -15 -3 -24 -6 -13 -5 -16 1 -16 28 0 19 3 38 7 41 11 12 40 8 52 -7z
m-5969 -217 c0 -34 36 -59 85 -59 29 0 45 -5 46 -12 2 -22 5 -32 13 -51 12
-27 -5 -38 -76 -53 -44 -9 -66 -10 -75 -2 -16 13 -19 213 -3 203 6 -3 10 -15
10 -26z m4525 -19 c8 -13 -24 -72 -35 -65 -14 9 -12 49 2 63 15 15 25 15 33 2z
m438 -18 c12 -10 17 -29 17 -61 -1 -39 -7 -52 -41 -90 -38 -42 -40 -43 -54
-25 -25 32 -28 60 -10 88 12 19 16 38 12 66 -3 25 -1 41 7 44 16 6 48 -4 69
-22z m-153 -37 c0 -63 10 -57 -135 -74 -91 -11 -113 -6 -102 23 4 9 22 16 49
18 l43 3 -2 43 -2 42 75 0 74 0 0 -55z m-435 14 c-7 -10 -35 -1 -35 11 0 5 9
6 20 3 11 -3 17 -9 15 -14z m-4457 -72 c5 -26 -16 -47 -49 -47 -15 0 -92 -16
-170 -36 -168 -43 -189 -40 -189 25 0 22 6 43 13 48 22 14 179 30 287 29 92
-1 105 -3 108 -19z m7336 -38 c-3 -5 -10 -7 -15 -3 -5 3 -7 10 -3 15 3 5 10 7
15 3 5 -3 7 -10 3 -15z m-2949 -26 c-2 -21 -4 -41 -4 -45 -1 -4 -10 -12 -22
-18 -27 -15 -49 3 -49 39 0 21 8 31 33 44 45 22 47 22 42 -20z m3052 31 c-3
-3 -12 -4 -19 -1 -8 3 -5 6 6 6 11 1 17 -2 13 -5z m-2924 -69 c-4 -15 -36 -12
-41 3 -3 9 3 13 19 10 13 -1 23 -7 22 -13z m-4473 -36 c10 -18 13 -19 23 -5
18 23 46 3 31 -21 -7 -10 -18 -17 -27 -15 -22 4 -26 -18 -28 -133 -1 -89 -4
-107 -19 -115 -9 -5 -75 -24 -146 -41 -70 -18 -123 -34 -116 -37 7 -2 59 4
116 13 149 25 149 24 159 -58 8 -75 -2 -107 -32 -107 -26 0 -42 22 -31 40 6 8
10 27 10 41 0 24 -5 27 -45 34 -48 7 -105 -1 -105 -15 0 -4 7 -13 15 -20 15
-13 21 -59 8 -61 -54 -8 -74 -7 -87 6 -8 8 -20 15 -26 15 -22 0 -71 -42 -68
-59 1 -9 -9 -28 -23 -42 -14 -14 -28 -32 -31 -40 -4 -11 -8 -12 -19 -1 -16 15
-24 125 -12 172 10 36 32 49 123 71 25 6 13 7 -41 4 -56 -3 -80 -1 -88 9 -6 7
-14 74 -18 149 -9 196 -9 196 227 217 74 7 140 13 145 15 6 2 29 4 52 4 33 1
45 -4 53 -20z m125 11 c-3 -5 -10 -10 -16 -10 -5 0 -9 5 -9 10 0 6 7 10 16 10
8 0 12 -4 9 -10z m-1862 -37 c-29 -11 -10 -23 35 -22 65 2 172 -17 172 -31 0
-13 -38 -22 -68 -16 -15 4 -45 8 -67 10 -48 5 -138 39 -143 55 -2 7 11 11 40
10 24 0 37 -3 31 -6z m797 -149 c6 -88 -1 -84 90 -61 75 20 73 20 88 18 8 -1
12 -23 12 -76 l0 -74 -32 1 c-44 1 -72 -8 -132 -46 -41 -25 -63 -31 -116 -33
-218 -9 -297 -18 -317 -39 -7 -7 -38 -18 -68 -25 -53 -12 -56 -11 -80 11 -23
22 -26 22 -43 7 -22 -21 -46 -22 -61 -3 -14 17 -16 260 -3 296 l10 25 6 -25
c3 -14 9 -47 14 -75 l8 -50 94 3 c173 6 205 26 194 123 -4 39 -3 59 6 64 19
12 25 -3 30 -78 l5 -72 50 1 c109 4 192 11 203 18 8 5 12 37 12 92 0 64 3 85
13 82 7 -3 14 -33 17 -84z m5621 25 c16 -26 11 -41 -10 -29 -27 14 -103 12
-123 -4 -11 -8 -18 -27 -19 -47 0 -28 -2 -31 -9 -14 l-9 20 0 -20 c-1 -16 -5
-14 -21 13 -11 18 -26 35 -33 38 -17 6 -18 34 -2 34 7 0 18 7 25 15 23 27 183
22 201 -6z m-310 -31 c6 -84 -11 -291 -25 -305 -8 -9 -21 -10 -46 -3 -19 5
-69 14 -110 19 -344 44 -389 60 -300 110 22 12 40 27 40 33 0 7 21 9 64 4 69
-7 96 5 96 45 0 14 -9 20 -40 25 -22 4 -40 10 -40 14 0 18 37 37 65 33 36 -5
55 -27 55 -65 0 -36 24 -48 107 -51 l68 -2 3 60 c3 91 9 105 37 105 19 0 25
-6 26 -22z m-6701 -178 c-1 -173 -9 -282 -21 -274 -5 3 -7 71 -5 152 2 81 5
181 5 222 1 53 4 71 11 60 6 -8 10 -80 10 -160z m350 81 c0 -30 -23 -43 -54
-31 -37 14 -73 13 -79 -2 -4 -10 -8 -10 -16 2 -14 20 -6 27 26 23 16 -2 37 3
48 11 29 23 75 21 75 -3z m2768 -80 c18 -1 24 -10 34 -47 7 -25 21 -50 32 -56
24 -13 75 -3 101 21 20 19 20 19 58 -15 47 -43 41 -54 -43 -79 -32 -10 -69
-29 -81 -41 -25 -27 -65 -31 -94 -11 -16 13 -17 20 -7 90 7 42 9 83 6 91 -10
27 -44 30 -68 7 -17 -18 -21 -33 -21 -90 0 -38 -3 -73 -8 -77 -4 -4 -27 -7
-51 -5 -23 1 -64 -3 -90 -9 -52 -11 -68 -7 -59 15 3 10 20 15 53 15 55 0 65 9
78 68 8 34 7 44 -6 54 -13 11 -15 10 -9 -6 6 -15 4 -17 -13 -13 -11 3 -20 1
-20 -3 0 -5 -13 -11 -30 -15 -23 -5 -45 2 -99 30 -38 20 -72 43 -75 51 -6 16
10 19 19 4 4 -6 11 -8 16 -4 5 3 42 0 82 -6 141 -23 145 -23 157 0 14 26 38
36 82 33 18 -1 43 -2 56 -2z m5524 -48 c1 -32 3 -78 4 -103 1 -25 2 -50 3 -56
2 -22 42 -31 418 -90 40 -6 66 18 59 55 -5 24 -10 192 -7 236 1 15 4 16 13 7
9 -9 14 -56 15 -148 1 -74 5 -138 8 -143 9 -16 75 -33 101 -27 21 6 24 12 24
50 0 41 2 45 30 51 47 10 63 -9 55 -66 -5 -34 -3 -49 7 -55 12 -8 128 -23 128
-17 0 2 -5 11 -11 21 -12 19 3 72 21 72 16 0 23 -46 10 -69 -16 -32 -4 -41 53
-41 29 0 69 -5 90 -11 22 -6 42 -8 45 -4 3 3 7 81 8 174 1 165 11 217 37 208
6 -2 14 -15 18 -29 7 -27 13 -196 11 -289 -2 -54 -4 -57 -34 -70 -18 -7 -36
-18 -40 -23 -11 -16 -10 -74 2 -97 17 -31 15 -111 -3 -124 -13 -9 -71 -2 -267
31 -138 24 -258 48 -266 55 -7 6 -25 9 -39 7 -39 -8 -304 36 -453 74 -72 18
-90 20 -133 10 -58 -14 -69 -10 -69 23 0 27 17 35 75 35 54 0 53 -5 61 228 4
100 11 182 16 182 4 0 9 -26 10 -57z m-7069 -63 c-2 -29 -7 -58 -11 -62 -13
-13 -93 2 -99 18 -10 27 7 59 44 81 57 34 68 27 66 -37z m-170 -96 c7 -85 2
-256 -10 -314 -9 -47 -55 -72 -139 -76 -78 -4 -124 -17 -124 -34 0 -16 76 -12
118 6 26 11 68 16 139 16 89 0 108 -3 139 -22 22 -14 32 -26 26 -32 -5 -5 -45
-14 -88 -20 -44 -5 -88 -16 -99 -22 -11 -7 -70 -16 -132 -19 -110 -6 -111 -6
-127 18 -9 13 -16 37 -16 53 0 23 -6 32 -30 42 -30 12 -39 33 -20 45 6 3 10
15 10 26 0 14 -7 19 -26 19 -35 0 -64 17 -64 38 0 23 19 42 41 42 24 0 32 16
25 45 -6 22 -9 23 -35 14 -33 -12 -77 -7 -110 10 -16 9 -21 21 -21 49 0 63
-45 85 -76 37 -29 -44 -99 -22 -92 29 5 36 53 50 188 54 103 3 129 7 145 22
11 10 30 21 43 25 56 17 289 51 307 45 17 -6 21 -20 28 -96z m1268 66 c10 -6
19 -21 19 -34 0 -26 25 -52 54 -57 31 -6 29 -26 -2 -32 -64 -13 -178 -18 -192
-8 -12 8 -11 13 8 34 13 14 22 36 22 54 0 25 6 33 28 41 36 14 40 14 63 2z
m5869 -5 c0 -8 -4 -15 -10 -15 -5 0 -10 7 -10 15 0 8 5 15 10 15 6 0 10 -7 10
-15z m-2095 -35 c33 -5 83 -11 110 -15 130 -15 138 -22 133 -108 l-3 -52 -60
-1 c-33 -1 -89 -3 -124 -4 -75 -3 -84 5 -78 72 3 36 0 51 -13 63 -20 18 -115
21 -126 3 -5 -7 -7 -41 -6 -75 3 -60 1 -64 -24 -73 -44 -17 -54 1 -54 95 0
122 -3 118 99 110 47 -3 113 -10 146 -15z m-6607 -62 c7 -7 12 -33 12 -59 0
-40 4 -50 27 -67 17 -13 24 -25 20 -36 -11 -28 -20 -23 -86 46 -42 45 -43 47
-32 81 11 31 21 43 42 46 3 1 10 -4 17 -11z m9817 -23 c0 -16 -6 -30 -12 -32
-9 -3 -13 7 -13 32 0 25 4 35 13 33 6 -3 12 -17 12 -33z m-8175 -85 c0 -43
-15 -61 -25 -30 -8 26 4 82 16 74 5 -3 9 -23 9 -44z m6802 29 c12 -7 47 -13
78 -13 30 -1 57 -5 60 -11 7 -16 -38 -32 -175 -60 -163 -32 -191 -53 -86 -63
42 -4 97 2 254 25 35 5 37 4 37 -22 0 -16 -7 -36 -15 -45 -14 -15 -13 -19 6
-36 20 -18 21 -18 34 0 11 15 21 17 54 11 23 -4 41 -11 41 -15 0 -13 -68 -33
-87 -26 -9 4 -23 0 -32 -8 -16 -14 -337 -99 -421 -111 -45 -6 -211 20 -400 64
-47 10 -157 31 -245 45 -194 32 -205 34 -205 45 0 7 124 37 260 62 114 21 165
36 163 47 -2 7 9 14 25 17 15 4 72 17 127 31 55 13 143 31 195 39 52 7 113 21
135 29 46 18 159 15 197 -5z m-8284 -119 c-5 -42 -23 -28 -26 20 -2 42 -1 44
13 25 9 -11 15 -31 13 -45z m5220 -32 c-63 -71 -67 -73 -117 -76 -56 -3 -57
-2 -37 31 7 12 25 43 40 70 l27 47 76 0 76 0 -65 -72z m1452 52 c0 -11 -21
-14 -213 -35 -266 -28 -327 -30 -327 -13 0 22 29 28 180 34 74 4 164 10 200
14 96 11 160 11 160 0z m390 -50 c0 -13 -11 -13 -30 0 -12 8 -11 10 8 10 12 0
22 -4 22 -10z m-4451 -108 c-9 -22 -12 -24 -24 -11 -12 11 -13 22 -5 48 5 19
7 38 4 42 -3 5 -2 14 2 21 13 20 34 -71 23 -100z m3289 71 c-2 -13 -16 -16
-70 -17 -83 -1 -91 17 -11 25 32 3 64 6 71 7 8 1 12 -5 10 -15z m-4083 -37
c19 -8 35 -20 35 -25 0 -20 -63 -43 -134 -48 -60 -5 -75 -3 -89 12 -26 25 -16
39 34 47 24 4 58 11 74 17 41 13 41 13 80 -3z m1340 -38 c10 -57 22 -78 46
-78 12 0 23 -10 30 -27 15 -41 4 -70 -33 -81 -81 -25 -99 -23 -107 8 -8 38 -8
46 4 66 7 11 16 43 20 70 13 97 29 112 40 42z m3315 7 c0 -23 -3 -24 -87 -28
-49 -1 1 -4 110 -5 l197 -2 0 -65 0 -65 -145 0 -145 0 0 -76 0 -75 135 7 135
7 0 -67 0 -66 -135 0 -135 0 0 -75 0 -75 138 0 138 0 -4 38 c-6 59 13 68 93
48 35 -9 76 -16 90 -16 15 0 35 -5 45 -10 11 -6 41 -15 67 -20 217 -46 207
-42 219 -80 14 -43 37 -49 60 -15 15 22 19 24 33 12 9 -8 79 -31 156 -51 77
-20 210 -57 295 -82 177 -53 211 -62 260 -69 19 -3 41 -9 49 -14 17 -11 29
-92 30 -210 l1 -84 -33 6 c-18 3 -49 12 -69 20 l-36 15 5 107 c6 139 2 155
-41 155 -18 0 -49 6 -67 13 -72 28 -79 18 -72 -114 l6 -111 -34 7 c-19 4 -68
21 -111 37 l-76 29 9 32 c12 41 12 139 0 170 -7 18 -26 29 -75 46 -36 12 -70
19 -76 16 -5 -3 -10 -33 -10 -66 0 -64 -6 -69 -50 -44 -32 19 -60 19 -60 1 0
-8 -4 -26 -10 -40 -9 -24 -10 -25 -47 -12 -44 15 -50 32 -52 139 l-1 68 -45
20 c-72 32 -79 26 -87 -65 -4 -44 -12 -84 -18 -90 -15 -15 -79 19 -90 50 -6
14 -10 57 -10 95 l0 69 -56 25 c-31 14 -62 25 -69 25 -18 0 -25 -23 -25 -81 0
-34 -4 -49 -13 -49 -22 0 -45 24 -50 50 -2 14 -5 -3 -6 -37 l-1 -63 -225 0
-225 0 0 320 c0 183 -4 320 -9 320 -5 0 -12 -26 -16 -59 -4 -32 -16 -73 -27
-92 l-20 -33 -14 24 c-14 25 -14 25 -7 -5 5 -16 8 -79 8 -140 0 -100 -3 -115
-27 -161 -15 -28 -48 -70 -73 -92 -71 -62 -115 -74 -302 -79 l-163 -5 0 342 0
342 180 -4 c99 -2 175 -1 169 3 -18 11 3 18 107 34 95 15 391 35 407 27 4 -2
7 -14 7 -27z m-3741 -1 c25 -32 25 -33 0 -63 -17 -21 -23 -23 -39 -13 -14 8
-20 8 -22 0 -3 -7 -9 -8 -19 -2 -24 14 -5 91 24 97 12 2 25 5 29 6 4 0 16 -11
27 -25z m6046 -20 c50 -8 200 -37 335 -63 135 -27 295 -56 355 -66 62 -9 133
-27 164 -41 29 -13 64 -24 77 -24 42 0 46 -33 38 -293 -7 -252 -11 -267 -56
-267 -21 0 -22 -17 -7 -118 1 -4 1 -24 0 -44 -1 -46 -13 -48 -116 -18 -38 11
-76 20 -84 20 -28 0 10 -29 65 -49 29 -11 75 -32 102 -46 46 -24 50 -29 56
-72 10 -76 7 -110 -10 -117 -51 -19 -77 9 -68 75 8 62 -10 85 -72 95 -25 3
-48 12 -52 19 -12 21 -27 27 -301 126 -57 20 -76 15 -69 -17 4 -25 162 -129
214 -143 23 -6 44 -17 47 -25 12 -30 -22 -40 -127 -39 -82 0 -103 -2 -103 -13
0 -8 11 -17 24 -20 30 -8 29 -20 -2 -26 -25 -5 -31 3 -39 55 -1 9 -5 20 -9 23
-4 4 -7 22 -7 41 0 38 -27 70 -67 79 -16 3 -49 12 -75 21 -59 18 -90 6 -88
-35 1 -15 2 -43 1 -62 -2 -55 -21 -15 -21 45 0 28 -7 61 -15 75 -22 39 -19
106 6 123 17 13 27 13 66 1 25 -8 59 -14 75 -14 16 0 38 -5 49 -10 10 -6 19
-7 19 -3 0 9 -109 57 -154 69 -15 3 -42 22 -60 40 -22 23 -38 31 -52 28 -11
-3 -33 2 -49 10 -17 9 -42 16 -56 16 -15 0 -36 8 -48 18 -19 15 -22 34 -32
197 -18 291 -22 412 -15 439 8 32 30 33 161 10z m-6704 -49 c41 -19 78 -35 84
-35 5 0 19 -8 30 -16 19 -15 17 -15 -25 -10 -25 3 -61 10 -80 16 -19 5 -62 10
-95 10 -58 0 -96 12 -83 25 12 12 73 44 85 44 6 1 44 -15 84 -34z m993 -132
c36 -93 76 -197 90 -233 23 -61 25 -63 34 -40 5 14 44 118 87 233 l78 207 94
0 93 0 -2 -337 -3 -338 -67 -3 -68 -3 -1 223 c0 200 -2 220 -14 193 -21 -44
-145 -381 -145 -393 0 -6 -8 -13 -17 -16 -19 -5 -91 -2 -97 5 -1 2 -30 76 -64
165 -33 89 -71 185 -84 213 l-23 53 0 -219 0 -218 -67 -3 -68 -3 0 264 c0 145
-3 298 -6 340 l-7 77 96 0 95 0 66 -167z m953 117 c18 -53 127 -359 184 -512
21 -60 39 -110 39 -113 0 -3 -35 -5 -78 -5 l-78 0 -24 75 -24 76 -124 -3 -124
-3 -22 -70 -22 -70 -77 -3 c-42 -2 -77 -1 -77 1 0 4 209 598 230 651 10 27 11
27 96 24 l86 -3 15 -45z m616 35 c75 -20 102 -38 135 -94 54 -93 27 -231 -55
-282 l-33 -21 46 -86 c26 -48 57 -106 70 -129 13 -23 24 -44 24 -47 0 -3 -36
-6 -79 -6 l-80 0 -62 120 -63 120 -48 0 -48 0 0 -120 0 -121 -72 3 -73 3 -3
338 -2 337 143 0 c94 0 162 -5 200 -15z m687 -51 l0 -67 -147 4 -148 4 0 -75
0 -75 137 1 136 1 4 -60 c2 -32 0 -61 -5 -64 -4 -2 -67 -3 -140 -2 l-132 2 0
-76 0 -77 153 0 153 0 -3 -62 -3 -63 -222 -3 -223 -2 0 340 0 340 220 0 220 0
0 -66z m-1084 15 c11 -18 16 -230 5 -243 -5 -6 -11 -24 -13 -41 -2 -22 -8 -30
-23 -30 -14 0 -20 6 -19 23 0 12 -3 22 -7 22 -18 0 -17 35 1 64 15 26 19 46
16 98 -5 80 -9 88 -47 88 -39 0 -37 18 4 23 62 8 76 7 83 -4z m3051 -112 c5
-84 10 -110 22 -116 30 -15 274 -72 287 -67 11 4 14 31 14 108 0 103 13 159
24 107 3 -13 7 -68 10 -121 2 -53 7 -102 10 -107 8 -12 36 -20 209 -61 71 -17
133 -28 138 -25 5 4 10 54 10 113 2 125 9 167 28 167 18 0 40 -81 41 -150 2
-92 -12 -320 -21 -337 -7 -12 -22 -16 -62 -15 -44 1 -56 5 -63 22 -7 16 -22
21 -79 28 -38 4 -92 14 -120 21 -27 8 -63 18 -80 21 -16 4 -42 18 -57 32 -20
19 -31 23 -50 17 -29 -10 -46 -7 -78 15 -33 23 -98 41 -147 41 -64 0 -68 9
-71 207 -2 95 -1 185 3 200 12 49 25 8 32 -100z m-7085 51 c20 -20 21 -23 6
-26 -18 -3 -67 26 -68 41 0 16 41 6 62 -15z m1288 -18 c72 -37 58 -63 -18 -35
-55 21 -74 34 -66 46 9 15 42 10 84 -11z m5460 -110 c0 -16 5 -52 11 -81 11
-49 10 -53 -12 -70 -27 -20 -39 -16 -39 12 0 11 -7 30 -15 43 -14 21 -13 24 5
41 11 10 23 36 26 57 7 43 24 42 24 -2z m-1420 10 c0 -11 -7 -20 -15 -20 -15
0 -21 21 -8 33 12 13 23 7 23 -13z m-3124 -87 c10 -83 -2 -327 -18 -352 -10
-16 -23 -21 -55 -21 -41 0 -93 -14 -103 -29 -6 -9 -126 -31 -170 -31 -17 0
-45 -8 -61 -17 -41 -24 -53 -8 -60 85 -6 72 -4 78 18 97 21 19 23 28 23 127 0
65 4 109 11 113 17 11 19 3 30 -101 6 -55 15 -103 20 -108 5 -6 34 -3 71 7 35
9 99 23 143 33 121 25 115 18 115 138 0 56 3 106 7 109 15 16 22 4 29 -50z
m4404 23 c0 -11 -19 -15 -25 -6 -3 5 1 10 9 10 9 0 16 -2 16 -4z m-1300 -51
c17 -21 9 -45 -23 -69 -22 -16 -43 -21 -95 -21 l-67 0 -3 34 c-4 44 7 54 71
62 87 10 104 10 117 -6z m1678 -27 c19 -16 14 -36 -13 -54 -32 -21 -72 -12
-102 23 -19 22 -24 23 -29 9 -8 -20 -33 -21 -40 -1 -4 8 -10 12 -15 9 -5 -3
-9 1 -9 9 0 11 12 14 49 12 27 -1 55 1 61 5 15 10 81 1 98 -12z m-5614 -104
c4 -15 6 -68 5 -118 -1 -50 2 -107 6 -127 18 -94 135 -58 135 42 l0 36 86 17
c72 15 88 15 95 4 14 -21 11 -146 -3 -154 -19 -12 -166 -61 -220 -75 -27 -6
-52 -18 -55 -25 -7 -19 -67 -18 -83 1 -12 15 -27 383 -16 411 9 25 43 16 50
-12z m5956 -120 c0 -10 -7 -14 -22 -12 -32 5 -35 28 -4 28 17 0 26 -5 26 -16z
m-5864 -70 c-5 -13 -10 -14 -18 -6 -6 6 -8 18 -4 28 5 13 10 14 18 6 6 -6 8
-18 4 -28z m4514 18 c0 -24 -19 -42 -45 -42 -33 0 -37 11 -13 37 26 28 58 31
58 5z m-6090 -99 c0 -7 -4 -13 -9 -13 -10 0 -21 25 -21 48 1 15 3 14 15 -2 8
-11 15 -26 15 -33z m8714 -5 c21 -33 30 -101 17 -126 -15 -28 -47 -45 -65 -35
-43 24 -86 75 -86 101 0 64 102 109 134 60z m-6020 -44 c9 -25 7 -183 -3 -202
-13 -24 -129 -78 -140 -66 -5 5 -12 19 -16 31 -7 24 8 35 68 47 25 6 27 9 27
62 0 63 -10 72 -65 54 -42 -14 -55 -35 -55 -91 0 -52 -41 -126 -76 -140 -48
-18 -63 -12 -70 29 -8 41 -42 94 -56 86 -4 -3 -8 -47 -8 -99 0 -72 -4 -97 -16
-109 -8 -9 -20 -16 -26 -16 -6 0 -26 -11 -44 -25 -55 -42 -83 -49 -121 -28
-18 10 -33 21 -33 26 0 18 59 93 83 106 13 7 34 30 46 52 20 35 21 48 15 126
-3 49 -12 100 -19 115 -12 25 -11 27 18 37 79 28 97 13 97 -86 0 -54 12 -68
29 -35 6 11 57 36 128 62 65 24 138 52 163 61 57 22 66 23 74 3z m4249 -28 c9
-7 17 -18 17 -24 0 -5 -8 -13 -17 -17 -27 -10 3 -23 53 -22 43 0 88 -18 79
-32 -5 -9 -214 -44 -258 -43 -15 0 -41 7 -57 15 -19 10 -29 11 -27 4 2 -13
-85 -45 -128 -47 -16 0 -39 -7 -49 -15 -37 -28 -73 -15 -151 54 -32 29 -35 30
-13 6 30 -33 58 -94 58 -125 0 -18 -6 -20 -67 -20 -67 0 -68 1 -83 33 -30 63
-147 71 -186 12 -34 -52 1 -84 127 -119 99 -27 135 -44 171 -83 97 -102 41
-273 -102 -313 -50 -14 -178 -12 -223 4 -80 29 -131 89 -144 172 l-6 34 77 0
c69 0 76 -2 76 -19 0 -11 11 -33 24 -48 22 -25 30 -28 89 -28 77 0 107 19 107
70 0 46 -24 62 -138 94 -153 43 -199 78 -211 163 -14 88 25 160 110 208 38 22
56 25 134 25 66 -1 99 -5 123 -18 27 -15 32 -15 32 -2 0 20 42 29 93 20 23 -4
67 -8 97 -9 57 -2 100 -12 100 -25 0 -4 16 -8 35 -9 27 -2 33 1 29 13 -3 8
-12 15 -19 15 -7 0 -18 6 -24 14 -21 25 16 40 111 47 49 4 95 12 101 18 15 15
38 14 60 -3z m-4908 -135 c-5 -126 -41 -184 -111 -179 -37 3 -39 5 -44 43 -3
22 -11 48 -16 58 -11 18 3 138 18 152 3 3 15 1 26 -6 18 -11 29 -10 69 7 30
13 51 17 55 10 3 -5 5 -44 3 -85z m980 -18 c80 -262 134 -416 139 -403 3 8 39
121 79 250 l73 235 81 3 81 3 -38 -108 c-21 -59 -74 -210 -117 -335 l-78 -228
-86 0 c-73 0 -88 3 -94 18 -4 9 -40 114 -80 232 -40 118 -90 259 -109 314 -20
54 -36 100 -36 102 0 2 35 4 79 4 l79 0 27 -87z m943 25 l-3 -63 -148 0 -147
0 0 -72 0 -73 135 0 135 0 0 -60 0 -60 -135 0 -135 0 0 -80 0 -80 150 0 150 0
0 -60 0 -60 -220 0 -220 0 0 335 0 335 220 0 221 0 -3 -62z m241 24 c13 -20
76 -113 140 -205 l116 -169 3 206 2 206 75 0 75 0 0 -335 0 -335 -67 0 -68 0
-123 183 c-67 100 -132 195 -145 210 l-22 28 3 -210 3 -211 -70 0 -71 0 0 213
c-1 116 -2 267 -4 335 l-3 122 66 0 c65 0 66 -1 90 -38z m893 9 c58 -22 122
-81 151 -137 25 -48 40 -150 33 -216 -12 -117 -75 -211 -174 -259 -42 -21 -65
-24 -219 -27 l-173 -4 0 337 0 337 163 -4 c137 -4 171 -8 219 -27z m698 -263
c57 -161 111 -312 121 -336 l19 -43 -82 3 -81 3 -22 65 -22 65 -123 0 -123 0
-21 -67 -21 -68 -77 0 -77 0 60 173 c34 94 86 245 117 334 l57 163 86 0 86 0
103 -292z m-4253 276 c-3 -3 -12 -4 -19 -1 -8 3 -5 6 6 6 11 1 17 -2 13 -5z
m276 -75 c1 -30 1 -84 -1 -122 -2 -61 -4 -68 -26 -77 -34 -13 -58 -52 -64
-106 -3 -32 -13 -53 -33 -72 -47 -46 -67 -61 -73 -55 -3 3 -28 -2 -55 -11 -68
-22 -80 -21 -87 12 -3 15 -10 38 -17 52 -13 29 -10 302 4 337 7 20 16 23 59
23 44 0 52 -3 59 -24 5 -12 7 -50 4 -83 -3 -35 -1 -63 4 -66 16 -10 136 14
153 29 11 11 15 39 16 105 1 71 5 93 19 109 25 28 35 13 38 -51z m4082 -52
c13 -10 16 -21 11 -40 -8 -32 -24 -34 -76 -7 -43 22 -54 35 -45 50 9 15 88 12
110 -3z m-3815 -86 c0 -13 -26 -32 -33 -24 -8 7 11 33 24 33 5 0 9 -4 9 -9z
m7073 -48 c-3 -9 -9 -11 -15 -5 -5 5 -6 17 -2 26 5 13 9 14 14 5 5 -7 6 -19 3
-26z m-7833 -80 c0 -62 -7 -80 -30 -83 -45 -7 -50 -2 -50 55 0 49 3 56 28 69
46 26 52 21 52 -41z m-142 -10 c-9 -2 -21 -17 -27 -34 -11 -33 -37 -47 -53
-31 -15 15 15 59 44 65 31 6 59 6 36 0z m1268 -59 c12 -47 -45 -74 -62 -29 -7
18 22 55 42 55 8 0 17 -12 20 -26z m-236 -70 c25 -8 61 -24 80 -35 l35 -20
-45 7 c-25 4 -63 8 -85 9 -42 2 -156 28 -174 40 -49 29 97 29 189 -1z m290 -4
c0 -5 -7 -10 -15 -10 -8 0 -15 5 -15 10 0 6 7 10 15 10 8 0 15 -4 15 -10z m40
0 c0 -5 -8 -10 -17 -10 -15 0 -16 2 -3 10 19 12 20 12 20 0z m6770 -20 c13 -9
13 -10 0 -10 -8 -1 -34 -5 -58 -9 -49 -10 -55 10 -6 20 43 10 48 10 64 -1z
m-7305 -87 c11 -7 30 -13 44 -13 35 0 94 -20 122 -41 19 -15 20 -19 7 -19 -43
0 -258 55 -258 67 0 3 8 11 17 18 18 13 35 10 68 -12z m2365 -92 c0 -13 -37
-24 -50 -16 -6 4 -8 11 -5 16 8 12 55 12 55 0z m668 -87 c12 -8 22 -21 22 -29
0 -20 -85 -40 -152 -36 -20 1 -54 48 -44 59 6 6 47 12 136 21 9 0 26 -6 38
-15z m-593 -13 c-14 -14 -95 -24 -95 -12 0 12 23 18 70 20 21 1 30 -3 25 -8z
m4245 -11 c0 -5 -2 -10 -4 -10 -3 0 -8 5 -11 10 -3 6 -1 10 4 10 6 0 11 -4 11
-10z m-2583 -82 c-3 -8 -6 -5 -6 6 -1 11 2 17 5 13 3 -3 4 -12 1 -19z m-1447
-8 c0 -6 -10 -14 -23 -19 -42 -16 -202 -39 -216 -32 -21 12 -1 20 102 41 110
21 137 23 137 10z m-1137 -179 c7 -63 1 -95 -14 -85 -5 3 -9 39 -9 80 0 88 14
91 23 5z m3131 24 c20 -19 36 -39 36 -44 0 -25 -74 -49 -96 -30 -24 19 -14
109 11 109 7 0 29 -16 49 -35z m1096 31 c0 -2 -20 -15 -44 -29 -33 -18 -46
-21 -50 -12 -6 16 32 35 87 44 4 0 7 -1 7 -3z m1225 -191 c1 -83 -2 -141 -6
-133 -5 7 -9 23 -9 35 0 12 -3 24 -8 27 -22 13 -99 16 -143 5 -44 -11 -50 -11
-70 6 l-21 20 27 23 c17 14 34 21 44 17 44 -18 137 -32 149 -22 17 14 15 77
-4 98 -14 16 -14 20 7 48 12 17 25 29 27 26 2 -2 5 -70 7 -150z m-6264 78 c25
-28 79 -108 79 -118 0 -13 -31 -3 -54 18 -24 21 -71 127 -57 127 4 0 18 -12
32 -27z m3403 -21 c11 -53 3 -72 -30 -72 -26 0 -26 1 -19 43 6 35 9 51 14 75
1 2 7 2 14 0 6 -3 16 -23 21 -46z m1536 43 c0 -8 -58 -35 -75 -35 -27 0 -16
19 18 29 37 11 57 13 57 6z m100 -100 c-13 -16 -40 -20 -40 -7 0 14 12 22 33
22 16 0 17 -3 7 -15z m-483 -67 c-2 -13 -4 -5 -4 17 -1 22 1 32 4 23 2 -10 2
-28 0 -40z m1388 41 c13 -20 -29 -49 -111 -76 -82 -26 -118 -25 -80 3 11 8 27
14 35 14 9 0 43 16 76 34 68 39 71 40 80 25z m-5845 -89 c0 -5 -4 -10 -10 -10
-5 0 -10 5 -10 10 0 6 5 10 10 10 6 0 10 -4 10 -10z m-902 -98 c23 -30 23 -32
5 -32 -16 0 -53 45 -53 65 0 14 24 -2 48 -33z m-1080 -21 c2 -12 1 -29 -2 -38
-9 -22 -36 2 -36 32 0 41 32 47 38 6z m6914 -184 c-9 -81 -9 -80 -9 58 -1 121
1 132 9 82 5 -35 5 -89 0 -140z m-582 53 c-8 -5 -35 -12 -60 -15 -25 -3 -56
-8 -70 -11 -14 -3 -22 -2 -18 2 8 7 111 31 143 33 16 1 17 -1 5 -9z m-160 -28
c0 -9 -55 -35 -97 -47 -17 -5 -23 -14 -23 -36 0 -31 -6 -35 -87 -60 -24 -7
-43 -16 -43 -21 0 -5 -5 -6 -12 -2 -6 4 -8 3 -5 -3 5 -7 22 -7 54 0 75 17 178
15 178 -3 0 -8 -13 -18 -30 -22 -16 -4 -73 -18 -125 -32 -52 -13 -120 -27
-150 -31 -30 -3 -80 -19 -112 -36 -66 -34 -98 -36 -122 -10 -14 15 -15 21 -4
27 20 14 100 33 135 34 30 0 63 21 63 40 0 15 -29 19 -62 8 -43 -13 -113 -28
-163 -34 -36 -5 -45 -1 -84 34 -50 47 -47 51 54 72 33 7 87 18 120 25 33 8 78
17 100 20 22 4 74 15 115 25 41 10 113 26 160 34 47 9 94 18 105 20 34 6 35 6
35 -2z m-3806 -48 c23 -22 21 -54 -3 -54 -11 0 -28 -13 -38 -30 -18 -32 -30
-34 -46 -9 -7 11 -3 30 11 62 22 51 47 61 76 31z m-1627 -7 c4 -7 21 -20 36
-30 15 -10 25 -22 22 -27 -11 -17 -33 -11 -40 11 -5 14 -10 18 -14 10 -9 -14
-51 -23 -51 -11 0 5 -7 7 -15 4 -20 -8 -19 15 2 38 19 21 48 24 60 5z m5373
-227 c0 -17 -20 -23 -299 -96 -75 -20 -108 -24 -120 -17 -29 18 -18 38 24 45
22 3 78 16 125 27 216 53 270 61 270 41z m1160 -54 c0 -13 -3 -32 -6 -41 -5
-13 -8 -14 -15 -3 -15 22 -11 68 6 68 9 0 15 -9 15 -24z"/>
<path d="M9400 6066 c-18 -22 -5 -48 22 -44 17 2 23 10 23 28 0 29 -26 38 -45
16z"/>
<path d="M977 5533 c-13 -13 -7 -42 12 -52 23 -13 31 -5 31 31 0 20 -5 28 -18
28 -10 0 -22 -3 -25 -7z"/>
<path d="M934 5235 c-8 -21 3 -45 20 -45 16 0 31 34 21 50 -9 15 -35 12 -41
-5z"/>
<path d="M1107 5229 c-9 -34 9 -69 36 -69 29 0 47 17 47 45 0 29 -19 45 -51
45 -19 0 -28 -6 -32 -21z"/>
<path d="M8990 5366 c-14 -14 -12 -62 3 -73 6 -5 39 -7 72 -4 l60 6 0 40 0 40
-63 0 c-35 0 -67 -4 -72 -9z"/>
<path d="M9530 5250 c0 -5 5 -10 10 -10 6 0 10 5 10 10 0 6 -4 10 -10 10 -5 0
-10 -4 -10 -10z"/>
<path d="M8160 4940 c-25 -4 -55 -6 -67 -4 -12 2 -33 0 -48 -6 -25 -9 -26 -13
-23 -72 l3 -63 35 0 c33 0 35 2 38 35 5 74 9 80 51 80 49 0 66 -17 75 -70 5
-35 10 -41 24 -35 9 4 29 7 44 6 24 -1 27 3 37 49 15 70 14 77 -11 84 -29 7
-100 6 -158 -4z"/>
<path d="M2021 5026 c-7 -8 -11 -34 -9 -58 3 -43 3 -43 44 -46 51 -4 66 13 62
70 -3 43 -3 43 -44 46 -27 2 -45 -2 -53 -12z"/>
<path d="M1874 4657 c-11 -29 0 -92 16 -92 11 0 15 12 15 49 0 49 -19 74 -31
43z"/>
<path d="M1220 4605 c-29 -35 -50 -88 -39 -102 15 -17 83 -17 98 1 17 20 3 94
-20 106 -23 13 -24 13 -39 -5z"/>
<path d="M1867 4474 c-13 -13 -7 -24 14 -24 11 0 19 5 17 12 -5 14 -22 21 -31
12z"/>
<path d="M1828 4383 c7 -3 16 -2 19 1 4 3 -2 6 -13 5 -11 0 -14 -3 -6 -6z"/>
<path d="M2027 4334 c-10 -11 -9 -52 3 -75 24 -44 75 -8 68 49 -2 22 -9 28
-33 30 -17 2 -34 0 -38 -4z"/>
<path d="M1866 4304 c-17 -45 4 -91 37 -79 15 6 28 60 20 83 -7 17 -50 15 -57
-4z"/>
<path d="M1270 4277 c-22 -11 -25 -20 -28 -69 -3 -62 14 -91 52 -86 17 2 23
14 34 67 11 57 11 66 -4 83 -20 21 -22 21 -54 5z"/>
<path d="M1636 4234 c-7 -52 1 -68 30 -62 16 3 19 13 19 53 0 43 -3 50 -21 53
-18 3 -22 -4 -28 -44z"/>
<path d="M7576 4592 c-16 -3 -17 -10 -12 -55 7 -53 26 -84 44 -73 15 9 44 108
34 118 -11 11 -42 16 -66 10z"/>
<path d="M2546 3992 c-15 -24 -17 -88 -3 -107 13 -17 18 -18 41 -7 25 11 27
16 24 65 -3 48 -5 52 -30 55 -14 2 -29 -1 -32 -6z"/>
<path d="M2332 3898 c2 -21 8 -33 18 -33 10 0 16 12 18 33 3 27 0 32 -18 32
-18 0 -21 -5 -18 -32z"/>
<path d="M9486 3284 c-9 -24 -7 -38 8 -60 14 -18 15 -18 26 10 12 33 5 66 -15
66 -7 0 -16 -7 -19 -16z"/>
<path d="M1551 3461 c-9 -6 -15 -31 -17 -70 -3 -56 -1 -61 20 -67 13 -3 40 2
61 10 35 15 37 18 31 47 -3 17 -6 44 -6 60 0 27 -3 29 -37 29 -21 0 -44 -4
-52 -9z"/>
<path d="M1666 3234 c-11 -28 -6 -44 13 -44 24 0 45 25 37 45 -7 20 -42 19
-50 -1z"/>
<path d="M6920 3429 c-16 -28 11 -69 45 -69 37 0 55 42 30 70 -24 26 -61 26
-75 -1z"/>
<path d="M8685 3173 c6 -6 30 -13 54 -16 29 -4 40 -2 33 5 -5 5 -29 12 -53 15
-29 4 -41 2 -34 -4z"/>
<path d="M6120 2731 l0 -211 68 0 c138 0 207 73 206 214 -1 84 -26 142 -76
178 -27 19 -49 24 -115 27 l-83 3 0 -211z m175 -81 c21 -8 25 -14 19 -33 -9
-31 -8 -31 -64 -17 -29 7 -54 20 -60 30 -9 17 -5 19 32 23 24 2 44 4 45 5 1 1
14 -3 28 -8z"/>
<path d="M9188 2953 c-2 -5 -4 -75 -4 -158 l1 -150 32 3 c18 2 67 -8 109 -22
101 -34 112 -34 119 8 9 44 -3 268 -14 279 -4 4 -37 12 -72 17 -35 5 -80 14
-99 20 -41 12 -67 13 -72 3z"/>
<path d="M9795 2838 c-3 -8 -5 -50 -3 -93 l3 -79 57 -14 c85 -21 88 -18 88 81
0 99 -5 106 -84 114 -44 5 -57 3 -61 -9z"/>
<path d="M9190 2506 c0 -14 4 -27 9 -30 10 -7 20 23 14 42 -8 21 -23 13 -23
-12z"/>
<path d="M10033 2453 c-18 -7 -16 -43 3 -50 16 -6 34 11 34 33 0 14 -20 23
-37 17z"/>
<path d="M4277 2900 c-25 -68 -76 -234 -73 -237 2 -2 39 -3 83 -1 l78 3 -41
125 c-23 69 -44 118 -47 110z"/>
<path d="M4810 2850 l0 -100 60 0 c126 0 181 61 135 149 -18 35 -60 51 -136
51 l-59 0 0 -100z"/>
<path d="M5310 1840 l0 -210 53 0 c113 0 185 40 211 117 41 120 0 251 -91 289
-18 8 -64 14 -103 14 l-70 0 0 -210z"/>
<path d="M6021 1907 c-19 -61 -37 -118 -39 -124 -3 -10 17 -13 77 -13 57 0 81
4 81 12 0 18 -74 238 -80 238 -3 0 -20 -51 -39 -113z"/>
<path d="M9626 7198 c-20 -23 -35 -46 -33 -52 2 -6 25 -13 50 -16 26 -3 52
-11 59 -18 16 -16 80 -16 96 0 7 7 12 26 12 44 0 18 6 35 13 37 6 3 1 6 -13 6
-14 1 -38 10 -55 21 -49 33 -87 26 -129 -22z"/>
<path d="M9849 7204 c-12 -14 -11 -16 5 -13 11 2 21 10 24 17 5 17 -13 15 -29
-4z"/>
<path d="M9920 7164 c0 -5 -8 -19 -18 -30 -9 -10 -23 -31 -29 -46 -10 -22 -19
-28 -42 -28 -20 0 -34 -7 -41 -20 -6 -10 -28 -24 -50 -30 l-40 -11 6 -87 c8
-127 10 -132 42 -132 l28 0 -4 63 c-3 49 -1 66 12 76 25 21 43 6 49 -39 7 -57
18 -65 55 -46 17 9 49 16 70 16 43 0 66 18 56 44 -6 15 -15 16 -55 11 -40 -6
-50 -4 -55 9 -3 9 -1 22 5 30 12 14 114 27 236 30 39 2 76 3 83 4 15 2 17 92
1 92 -6 0 -24 9 -39 20 -21 15 -30 17 -33 8 -4 -8 -6 -7 -6 3 -2 35 -90 69
-183 72 -28 1 -48 -2 -48 -9z m190 -108 c0 -2 3 -11 6 -19 3 -9 -3 -17 -18
-20 -34 -9 -68 3 -68 24 0 15 7 19 40 19 22 0 40 -2 40 -4z"/>
<path d="M9168 7163 c7 -3 16 -2 19 1 4 3 -2 6 -13 5 -11 0 -14 -3 -6 -6z"/>
<path d="M9017 7123 c-8 -44 2 -58 36 -49 29 7 39 28 31 62 -5 18 -13 24 -34
24 -24 0 -28 -5 -33 -37z"/>
<path d="M8905 7140 c-16 -4 -48 -12 -70 -16 l-40 -8 60 -6 c46 -5 64 -3 78 8
17 15 23 33 10 31 -5 0 -21 -4 -38 -9z"/>
<path d="M9303 7144 c-7 -3 -13 -16 -13 -29 0 -24 0 -24 45 -8 42 14 60 33 33
33 -7 0 -22 2 -33 5 -11 2 -26 2 -32 -1z"/>
<path d="M6523 7105 c0 -22 2 -30 4 -17 2 12 2 30 0 40 -3 9 -5 -1 -4 -23z"/>
<path d="M8220 7060 c0 -5 4 -10 9 -10 6 0 13 5 16 10 3 6 -1 10 -9 10 -9 0
-16 -4 -16 -10z"/>
<path d="M9155 6959 c-16 -5 -46 -7 -66 -4 -44 8 -66 -12 -49 -44 13 -26 11
-26 45 5 35 32 71 29 67 -5 -1 -13 5 -34 13 -47 8 -13 15 -29 15 -37 0 -29 21
-36 56 -19 43 20 43 28 -1 36 -27 5 -35 12 -35 29 0 12 -3 32 -6 43 -5 17 0
24 25 32 17 6 31 13 31 16 0 9 -61 5 -95 -5z"/>
<path d="M6523 6895 c0 -38 2 -53 4 -32 2 20 2 52 0 70 -2 17 -4 1 -4 -38z"/>
<path d="M8030 6915 c-14 -8 -34 -14 -46 -15 -11 0 -29 -7 -40 -15 -19 -15
-19 -15 1 -30 12 -9 28 -13 40 -10 11 4 37 10 58 15 21 4 48 17 61 29 12 11
34 21 49 21 14 0 29 5 32 10 10 16 -126 12 -155 -5z"/>
<path d="M8864 6906 c-3 -7 -4 -38 -2 -67 3 -47 6 -54 26 -57 29 -4 36 15 27
83 -5 46 -10 55 -26 55 -11 0 -22 -6 -25 -14z"/>
<path d="M8568 6888 c-43 -9 -47 -12 -37 -30 11 -20 11 -20 34 2 19 18 27 20
43 11 28 -15 32 -14 32 9 0 22 -3 22 -72 8z"/>
<path d="M8423 6873 c-18 -6 -16 -23 1 -23 17 0 30 16 19 23 -5 2 -14 2 -20 0z"/>
<path d="M8750 6853 c-32 -22 -126 -38 -282 -46 -34 -2 -54 -9 -68 -25 -35
-37 -80 -23 -80 26 0 19 -5 23 -22 20 -15 -2 -22 -9 -22 -21 1 -10 -9 -25 -21
-33 l-24 -15 25 -36 c13 -20 24 -42 24 -49 0 -21 16 -17 32 8 13 20 17 21 32
9 13 -11 21 -11 47 -1 25 11 32 11 39 0 4 -7 6 -18 4 -25 -3 -6 1 -17 9 -23
11 -9 24 -8 59 8 26 11 54 17 69 13 l24 -6 -25 20 -24 21 36 44 c36 44 38 45
111 51 97 8 109 14 105 45 -4 32 -17 37 -48 15z"/>
<path d="M9813 6793 c-7 -2 -13 -13 -13 -24 0 -10 -11 -26 -26 -35 -32 -22
-54 -64 -54 -105 0 -18 -7 -41 -17 -51 -20 -22 -28 -22 150 -6 75 6 137 16
137 20 0 5 -5 17 -12 27 -9 15 -7 24 11 50 31 43 48 40 58 -11 8 -39 12 -43
40 -46 34 -3 38 5 45 86 3 31 0 35 -37 49 -60 22 -94 27 -109 14 -10 -9 -15
-8 -19 3 -4 9 -18 14 -37 14 -17 -1 -36 4 -42 10 -12 12 -52 15 -75 5z m92
-131 c-6 -16 -7 -16 -17 1 -5 10 -7 26 -3 35 6 16 7 16 17 -1 5 -10 7 -26 3
-35z"/>
<path d="M9337 6783 c-15 -15 -7 -43 13 -43 15 0 20 7 20 25 0 24 -18 34 -33
18z"/>
<path d="M9176 6765 c-19 -20 -20 -26 -2 -50 17 -24 46 -13 46 18 0 35 -23 52
-44 32z"/>
<path d="M8685 6670 l-30 -7 30 -12 c32 -13 82 0 70 19 -7 11 -25 11 -70 0z"/>
<path d="M10210 6590 c-12 -7 -10 -9 8 -7 12 0 22 5 22 9 0 11 -12 10 -30 -2z"/>
<path d="M9066 6524 c-8 -21 1 -34 24 -34 28 0 36 21 15 37 -24 17 -32 17 -39
-3z"/>
<path d="M10044 6475 c-7 -18 3 -35 22 -35 8 0 14 10 14 25 0 27 -27 35 -36
10z"/>
<path d="M2702 6400 c0 -19 2 -27 5 -17 2 9 2 25 0 35 -3 9 -5 1 -5 -18z"/>
<path d="M7810 6365 c-13 -16 -10 -47 5 -52 22 -7 48 23 41 45 -8 25 -28 28
-46 7z"/>
<path d="M10180 6353 c0 -5 14 -8 30 -9 17 -1 30 3 30 7 0 5 -13 9 -30 9 -16
0 -30 -3 -30 -7z"/>
<path d="M2692 6310 c0 -19 2 -27 5 -17 2 9 2 25 0 35 -3 9 -5 1 -5 -18z"/>
<path d="M9982 6330 c-46 -11 -49 -18 -16 -30 23 -9 36 -8 62 4 56 27 27 43
-46 26z"/>
<path d="M9460 6266 c0 -8 5 -18 10 -21 6 -3 10 3 10 14 0 12 -4 21 -10 21 -5
0 -10 -6 -10 -14z"/>
<path d="M2681 6115 c-4 -139 -3 -254 3 -263 8 -14 29 -175 32 -257 2 -44 6
-100 9 -125 3 -25 6 -56 5 -69 0 -14 6 -28 12 -33 9 -5 9 -8 1 -8 -6 0 -9 -9
-6 -20 3 -11 9 -20 14 -20 5 0 9 -9 9 -20 0 -11 4 -20 10 -20 5 0 9 -16 8 -35
-1 -24 5 -40 17 -49 12 -8 16 -20 12 -35 -3 -11 -2 -19 2 -17 4 3 13 1 21 -5
8 -5 10 -9 4 -9 -14 0 5 -81 21 -92 6 -5 4 -8 -5 -8 -12 0 -13 -2 -1 -9 7 -5
11 -13 7 -19 -3 -6 1 -18 10 -26 8 -9 13 -16 9 -16 -3 0 1 -10 9 -21 8 -12 12
-28 9 -35 -3 -8 1 -14 11 -14 9 0 16 -6 16 -14 0 -8 4 -16 10 -18 5 -1 11 -12
14 -23 8 -39 18 -65 26 -65 4 0 7 -8 6 -17 0 -10 5 -17 11 -16 7 2 12 0 12 -5
-4 -22 2 -42 11 -37 6 3 10 -1 10 -9 0 -9 6 -16 13 -16 8 0 7 -4 -3 -10 -10
-6 -11 -10 -2 -10 6 0 12 -7 12 -16 0 -8 5 -12 10 -9 6 3 10 -1 10 -9 0 -9 5
-16 10 -16 6 0 10 -7 10 -15 0 -8 5 -15 10 -15 6 0 9 -5 8 -12 -2 -7 2 -12 7
-13 20 -1 35 -17 35 -36 0 -10 5 -19 10 -19 6 0 10 -8 10 -17 0 -10 14 -27 30
-38 16 -11 30 -24 30 -29 0 -5 12 -19 28 -32 15 -13 27 -28 27 -32 0 -10 66
-72 77 -72 5 0 8 -6 8 -12 0 -7 16 -24 35 -38 19 -14 35 -31 35 -37 0 -7 5
-13 11 -13 6 0 22 -9 35 -19 22 -17 23 -20 7 -24 -14 -4 -13 -5 5 -6 13 0 32
-10 44 -21 12 -11 28 -20 35 -20 7 0 12 -3 11 -7 -2 -5 0 -9 5 -10 4 -1 22
-16 40 -33 17 -16 38 -30 45 -30 6 0 12 -5 12 -12 0 -6 3 -8 6 -5 4 4 15 -3
25 -15 11 -11 19 -17 19 -12 0 5 5 1 11 -8 5 -10 19 -18 29 -18 10 0 23 -7 28
-16 5 -9 12 -15 16 -14 12 3 66 -24 66 -33 0 -5 5 -5 10 -2 6 3 10 2 10 -3 0
-5 18 -15 40 -22 22 -7 40 -17 40 -22 0 -5 6 -8 13 -7 16 3 67 -22 67 -33 0
-4 9 -8 21 -8 11 0 18 -4 15 -9 -4 -5 2 -7 13 -4 10 3 22 0 25 -6 4 -6 16 -11
27 -11 10 0 19 -4 19 -9 0 -5 10 -7 21 -4 14 4 25 0 31 -11 5 -9 21 -16 38
-16 15 0 30 -5 32 -11 3 -9 9 -9 25 0 14 7 24 8 28 1 3 -5 15 -10 25 -10 10 0
25 -7 34 -15 18 -19 26 -19 26 0 0 9 6 12 16 8 13 -5 13 -7 2 -14 -10 -7 -8
-9 7 -10 11 -1 26 -1 33 0 6 1 12 -4 12 -11 0 -9 3 -9 10 2 6 9 13 11 18 5 10
-13 35 -18 27 -5 -3 5 1 10 9 10 9 0 16 -4 16 -9 0 -4 11 -7 25 -6 14 2 25 0
25 -3 0 -4 28 -8 61 -9 34 -2 67 -7 74 -13 7 -5 23 -10 36 -10 13 0 68 -1 122
-3 55 -2 97 1 97 6 0 6 5 6 13 1 13 -10 44 -10 96 2 28 6 33 4 27 -7 -4 -8 0
-5 8 5 9 11 16 15 16 10 0 -5 9 -10 20 -10 11 0 20 3 20 6 0 7 14 9 63 12 15
1 27 5 27 9 0 3 11 5 25 4 14 -2 25 1 25 5 0 5 15 12 33 15 17 3 41 8 52 10
11 2 20 4 20 6 0 1 9 3 20 4 33 4 297 73 340 89 59 21 30 19 -43 -4 -86 -27
-287 -67 -404 -79 -125 -14 -401 -14 -526 0 -146 15 -331 55 -471 101 -123 40
-316 119 -389 159 -20 12 -62 35 -92 52 -30 16 -98 59 -150 95 -539 369 -893
903 -1024 1548 -24 117 -44 315 -49 484 l-3 85 -3 -90z"/>
<path d="M7880 5955 c-17 -21 -8 -50 17 -53 26 -4 41 31 23 53 -16 19 -24 19
-40 0z"/>
<path d="M9775 5831 c-11 -5 -41 -11 -67 -15 -56 -8 -62 -16 -47 -50 15 -31
24 -32 46 -6 24 27 51 25 65 -5 13 -28 24 -28 113 0 l40 13 -42 1 c-39 1 -44
4 -57 36 -16 37 -19 39 -51 26z"/>
<path d="M9882 5688 c-31 -31 -3 -82 40 -76 18 2 24 10 26 37 5 46 -36 69 -66
39z"/>
<path d="M10167 5473 c-9 -8 -9 -66 -1 -87 10 -25 34 -19 34 9 0 14 9 34 20
45 12 12 18 25 15 30 -7 11 -58 14 -68 3z"/>
<path d="M9906 5437 c-22 -16 -19 -75 5 -90 26 -16 68 0 75 29 15 57 -34 95
-80 61z"/>
<path d="M102 5153 c-5 -10 -12 -42 -16 -70 -7 -58 1 -66 42 -37 17 11 22 25
22 58 0 57 -29 86 -48 49z"/>
<path d="M10035 5101 l-50 -6 3 -50 c4 -74 4 -74 72 -74 69 1 80 11 80 76 0
42 -14 64 -39 61 -9 0 -38 -4 -66 -7z"/>
<path d="M10217 5103 c-12 -11 -8 -23 8 -23 8 0 15 7 15 15 0 16 -12 20 -23 8z"/>
<path d="M3535 5020 c3 -5 8 -10 11 -10 2 0 4 5 4 10 0 6 -5 10 -11 10 -5 0
-7 -4 -4 -10z"/>
<path d="M7503 4843 c-19 -7 -16 -78 3 -94 23 -19 48 1 52 42 3 23 -2 37 -14
46 -19 14 -22 14 -41 6z"/>
<path d="M616 4747 c-18 -13 -18 -14 -2 -20 27 -10 66 2 59 19 -7 18 -34 18
-57 1z"/>
<path d="M87 4587 c-9 -23 5 -106 20 -118 23 -20 34 4 31 67 -3 51 -6 59 -24
62 -12 2 -24 -3 -27 -11z"/>
<path d="M215 4546 c-34 -25 10 -71 57 -58 24 6 23 48 -1 62 -26 13 -33 13
-56 -4z"/>
<path d="M3585 4360 c5 -9 3064 -3 3074 6 2 2 -690 4 -1538 4 -1000 0 -1540
-3 -1536 -10z"/>
<path d="M549 4223 c-9 -10 -15 -48 -18 -99 -3 -71 -1 -85 14 -90 26 -10 35 7
42 79 4 47 10 67 19 67 10 0 14 -13 14 -43 0 -47 13 -67 45 -67 33 0 45 20 45
78 0 82 -9 92 -84 92 -47 0 -67 -4 -77 -17z"/>
<path d="M49 4154 c-24 -21 -45 -39 -47 -40 -2 -1 9 -19 23 -40 29 -42 28 -58
-3 -62 -21 -3 -30 -26 -14 -36 4 -2 70 1 146 8 99 10 142 18 154 29 14 15 14
17 -2 23 -16 6 -37 4 -125 -12 l-34 -7 7 53 c4 30 12 62 18 73 13 25 1 36 -44
43 -31 5 -41 1 -79 -32z"/>
<path d="M10118 3865 c-78 -16 -88 -20 -88 -42 0 -13 10 -14 68 -9 134 13 142
15 142 42 0 28 -17 30 -122 9z"/>
<path d="M8077 273 c-9 -8 -9 -56 -1 -77 8 -22 39 -37 58 -30 19 7 22 65 6 95
-10 18 -50 26 -63 12z"/>
</g>
</svg>
